<svg width="44" height="44" viewBox="0 0 44 44" fill="none" xmlns="http://www.w3.org/2000/svg">
<path d="M43.9084 30.4928C43.6781 29.4584 43.0422 28.58 42.1177 28.0194L31.502 21.5818C31.3523 21.491 31.1969 21.4112 31.0376 21.3408V7.44254C31.0376 5.67403 30.2158 4.06657 28.783 3.03237C27.3501 1.99808 25.5671 1.72567 23.8914 2.28437L21.7339 3.00386C19.7443 1.52525 16.9127 1.68837 15.1094 3.49392L13.4071 5.19827C12.9032 5.70271 12.9032 6.52073 13.4071 7.02526L18.7747 12.3993C19.0167 12.6417 19.3449 12.7778 19.6871 12.7778C20.0293 12.7778 20.3575 12.6417 20.5995 12.3993L22.3018 10.695H22.3017C23.2623 9.73332 23.7913 8.45461 23.7913 7.09442C23.7913 6.42238 23.6617 5.7704 23.4151 5.16649L24.7069 4.73569C25.5863 4.44251 26.5219 4.58548 27.2739 5.12816C28.0258 5.67093 28.457 6.51445 28.457 7.44245V20.9915H16.9897C16.4723 20.9915 15.9953 20.7336 15.7446 20.3185L7.46013 6.5954C6.35717 4.7685 3.91786 4.13616 2.02246 5.18552C2.02057 5.18664 2.01807 5.18793 2.01558 5.1894C1.07184 5.71347 0.402075 6.56457 0.129387 7.58663C-0.137796 8.58802 0.0117956 9.63109 0.550548 10.5237L10.399 26.8375C11.1141 28.022 12.4374 28.7579 13.8526 28.7579H18.1237V35.6533L16.0682 39.4162H14.2529C13.5403 39.4162 12.9626 39.9946 12.9626 40.7081C12.9626 41.4216 13.5403 42 14.2529 42H29.7473C30.4599 42 31.0376 41.4216 31.0376 40.7081C31.0376 39.9946 30.4599 39.4162 29.7473 39.4162H27.9318L25.8763 35.6533V28.7579H27.802C28.0817 28.7579 28.3531 28.8328 28.5867 28.9745L37.8742 34.6067C38.528 35.0032 39.259 35.1923 39.983 35.1923C41.3018 35.1922 42.5971 34.5647 43.3586 33.4203C43.9391 32.5477 44.1343 31.5081 43.9084 30.4928ZM20.4769 8.86801L19.6871 9.65891L16.1443 6.11172L16.9341 5.32083C17.4073 4.84713 18.0363 4.58626 18.7055 4.58626C19.3746 4.58626 20.0037 4.84713 20.4769 5.32091C20.95 5.79469 21.2107 6.42444 21.2107 7.0945C21.2107 7.76448 20.9501 8.39423 20.4769 8.86801ZM19.0097 39.4162L20.1792 37.2754H23.8209L24.9904 39.4162H19.0097ZM23.2957 34.6915H20.7045V28.7578H23.2957V34.6915ZM41.2108 31.9876C40.794 32.6138 39.8783 32.8012 39.2111 32.3965L29.9235 26.7643C29.2866 26.3781 28.5529 26.174 27.8019 26.174H13.8526C13.3353 26.174 12.8582 25.9161 12.6076 25.5009L2.75915 9.18719C2.58668 8.90151 2.53816 8.56984 2.62263 8.25333C2.71296 7.91468 2.94255 7.62866 3.26908 7.44788C3.27072 7.44693 3.27278 7.44581 3.27493 7.44461C3.96009 7.06781 4.86444 7.29053 5.25162 7.93182L13.5361 21.655C14.2512 22.8395 15.5745 23.5752 16.9897 23.5752H29.3804C29.6601 23.5752 29.9315 23.6501 30.1652 23.7918L40.7807 30.2295C41.0976 30.4216 41.3138 30.7148 41.3895 31.0549C41.461 31.3758 41.3975 31.7071 41.2108 31.9876Z" fill="white"/>
</svg>
