<svg width="44" height="44" viewBox="0 0 44 44" fill="none" xmlns="http://www.w3.org/2000/svg">
<path d="M17.072 0C12.5983 0 8.78169 1.39169 6.11248 3.91776C3.44328 6.44383 2 10.053 2 14.1187C2 16.6976 2.84025 18.8177 3.80409 20.6554L4.31549 21.6269H14.7281V36.7946L22.0581 44L29.2745 36.7875V21.6269H39.6836L40.195 20.6554C41.1574 18.8204 41.9966 16.7031 41.999 14.1293C42.0889 5.95765 35.813 0 27.5805 0C25.1811 0 22.3459 0.857041 21.8948 0.98912C20.4207 0.414405 18.8117 0 17.072 0ZM17.072 3.60448C21.2826 3.60448 26.1102 7.97632 26.1102 7.97632L28.6708 5.41728C28.6708 5.41728 27.4635 4.46814 26.6287 3.77696C27.0044 3.72504 27.3346 3.60448 27.5805 3.60448C34.1634 3.60448 38.4377 7.65874 38.3624 14.0976V14.1082V14.1187C38.3624 15.5808 37.8179 16.7705 37.2438 18.0224H6.75528C6.18119 16.7703 5.6366 15.5808 5.6366 14.1187C5.6366 10.8764 6.7194 8.32773 8.62685 6.52256C10.5343 4.71739 13.3452 3.60448 17.072 3.60448ZM18.3647 21.6269H25.6379V21.6621L18.3647 24.2634V21.6269ZM25.6379 25.4918V28.871L18.3647 31.4723V28.0931L25.6379 25.4918ZM25.6379 32.7008V35.3021L22.0404 38.903L18.3718 35.3021L25.6379 32.7008Z" fill="white"/>
</svg>
