<svg width="44" height="44" viewBox="0 0 44 44" fill="none" xmlns="http://www.w3.org/2000/svg">
<path d="M9.56747 0L7.45455 11.9382V16.5V18.3333H7.82386C8.37463 22.0219 10.4019 25.093 13.3778 27.056C6.72612 29.7845 2 36.328 2 44H5.63636C5.63636 39.3534 7.76529 35.2291 11.0909 32.5452V33.7591L20.1818 42.9258L29.2727 33.7591V32.5452C32.5983 35.2291 34.7273 39.3534 34.7273 44H38.3636C38.3636 36.328 33.6375 29.7845 26.9858 27.056C29.9617 25.093 31.989 22.0219 32.5398 18.3333H32.9091V16.5V11.9382L30.7962 0H29.2727H9.56747ZM38.3636 0V14.6667H42V0H38.3636ZM12.6143 3.66667H27.7493L29.2727 12.264V14.6667H11.0909V12.264L12.6143 3.66667ZM18.3636 5.5V7.33333H16.5455V11H18.3636V12.8333H22V11H23.8182V7.33333H22V5.5H18.3636ZM11.4567 18.3333H28.907C28.0461 22.4984 24.5786 25.6667 20.1818 25.6667C15.7851 25.6667 12.3175 22.4984 11.4567 18.3333ZM38.3636 18.3333V22H42V18.3333H38.3636ZM20.1818 29.3333C22.1144 29.3333 23.952 29.7193 25.6364 30.404V32.2409L20.1818 37.7409L14.7273 32.2409V30.404C16.4116 29.7193 18.2493 29.3333 20.1818 29.3333Z" fill="white"/>
</svg>
