<svg width="41" height="44" viewBox="0 0 41 44" fill="none" xmlns="http://www.w3.org/2000/svg">
<path d="M15.4502 0C10.8642 0 6.95186 1.4157 4.21567 3.98535C1.47949 6.555 0 10.2264 0 14.3623C0 17.484 1.19526 19.9305 2.42456 22.0788C3.65385 24.2271 4.91232 26.1489 5.58813 28.5492C6.39968 31.5061 6.98421 35.0277 7.92896 37.9808C8.40189 39.4591 8.95103 40.8126 9.82929 41.9447C10.7076 43.0767 12.1287 44 13.7537 44C15.31 44 16.8349 43.2061 17.6272 41.9948C18.4195 40.7835 18.6393 39.3694 18.6393 37.8304C18.6393 35.939 18.6357 32.9765 19.047 30.6546C19.2526 29.4937 19.5842 28.5058 19.9025 27.9941C20.2208 27.4825 20.2459 27.5 20.4959 27.5C20.7459 27.5 20.7734 27.4853 21.0929 27.9977C21.4125 28.5101 21.7448 29.4973 21.9521 30.6582C22.3668 32.98 22.3671 35.9414 22.3671 37.8304C22.3671 39.3694 22.5873 40.78 23.3792 41.9912C24.171 43.2024 25.6969 44 27.2526 44C28.8844 44 30.301 43.0648 31.1771 41.9268C32.0531 40.7887 32.6013 39.431 33.0737 37.9486C34.018 34.9858 34.6083 31.4586 35.4182 28.5492C36.094 26.1488 37.3489 24.2273 38.5782 22.0788C39.8058 19.9331 40.9959 17.4881 40.9991 14.373C41.0887 6.06099 34.6612 0 26.2224 0C23.7627 0 20.8564 0.871827 20.394 1.00618C18.8829 0.421554 17.2335 0 15.4502 0ZM26.2224 3.66667C32.9704 3.66667 37.354 7.79068 37.2785 14.3408L37.2749 14.3516V14.3623C37.2749 16.5855 36.479 18.2745 35.3308 20.2812C34.1827 22.288 32.6777 24.5435 31.8251 27.5716V27.5752C30.9378 30.7603 30.3344 34.2844 29.517 36.8493C29.1083 38.1317 28.6333 39.1593 28.2064 39.7139C27.7796 40.2682 27.6162 40.3333 27.2526 40.3333C26.6872 40.3333 26.7022 40.2996 26.5136 40.0111C26.325 39.7226 26.095 38.9645 26.095 37.8304C26.095 35.9611 26.1255 32.8416 25.6217 30.0208C25.3698 28.6105 25.0078 27.2596 24.2711 26.0785C23.5343 24.8973 22.1443 23.8333 20.4959 23.8333C18.8475 23.8333 17.4596 24.9002 16.7244 26.082C15.9891 27.2639 15.6236 28.6141 15.3737 30.0244C14.8741 32.845 14.9114 35.9635 14.9114 37.8304C14.9114 38.9645 14.6814 39.7191 14.4927 40.0075C14.3041 40.2958 14.3205 40.3333 13.7537 40.3333C13.3835 40.3333 13.2174 40.2685 12.7926 39.721C12.3679 39.1736 11.894 38.1576 11.4857 36.8815C10.6692 34.3293 10.0663 30.8035 9.18129 27.5824V27.5752L9.17765 27.5716C8.32503 24.5435 6.82365 22.2877 5.67551 20.2812C4.88492 18.8996 4.2809 17.6618 3.96812 16.3031C4.61108 16.42 5.26655 16.5 5.94126 16.5C11.9016 16.5 16.7753 11.7077 16.7753 5.84375C16.7753 5.13309 16.6858 4.44188 16.5496 3.76693C20.5642 4.3944 24.7152 8.11393 24.7152 8.11393L27.34 5.51074C27.34 5.51074 26.1025 4.54523 25.2467 3.84212C25.6318 3.78931 25.9703 3.66667 26.2224 3.66667ZM12.749 3.87435C12.9358 4.4987 13.0475 5.15576 13.0475 5.84375C13.0475 9.72582 9.88587 12.8333 5.94126 12.8333C5.21425 12.8333 4.52126 12.7155 3.86619 12.5182C4.20705 10.0878 5.21985 8.11262 6.79313 6.63509C8.25736 5.25998 10.2407 4.27998 12.749 3.87435Z" fill="white"/>
</svg>
