<svg width="44" height="44" viewBox="0 0 44 44" fill="none" xmlns="http://www.w3.org/2000/svg">
<path d="M34.924 0H31.6917C27.5837 0 23.9806 2.16883 22 5.40356C20.0199 2.16883 16.4163 0 12.3087 0H9.07643C4.62318 0 1 3.56746 1 7.95222V16.6725C1 20.0309 2.71269 23.1677 5.51691 25.0282L7.71149 35.8298C7.77813 36.1575 7.94774 36.4561 8.19637 36.6833L15.7349 43.5751C16.2057 44.0054 16.891 44.1202 17.4797 43.8674C18.0684 43.6146 18.449 43.0421 18.449 42.4095V34.8106C18.449 32.3103 19.8216 30.0279 22 28.8156C24.1784 30.0279 25.551 32.3103 25.551 34.8106V42.4095C25.551 43.0421 25.9316 43.6146 26.5203 43.8674C27.1035 44.1177 27.7994 44.0012 28.2651 43.5751L35.8036 36.6833C36.0523 36.4561 36.2219 36.1575 36.2885 35.8298L38.4831 25.0282C41.2873 23.1677 43 20.0309 43 16.6725V7.95222C43 3.56746 39.3772 0 34.924 0ZM39.7694 16.6725C39.7694 19.1421 38.4156 21.4367 36.236 22.6608C36.2334 22.6621 36.2313 22.6637 36.2287 22.6654C35.514 23.0654 34.7377 23.3363 33.9218 23.4705L31.4268 23.8802C30.5468 24.0245 29.9525 24.8443 30.0991 25.7104C30.2439 26.5652 31.0898 27.1604 31.9579 27.0178L34.4528 26.6081C34.5976 26.5841 34.7411 26.5572 34.8838 26.5277L33.2233 34.7016L28.7811 38.7625V34.8102C28.7811 30.8065 26.3729 27.1844 22.6459 25.583C22.2153 25.4059 21.7847 25.4059 21.3541 25.583C17.6271 27.1844 15.2189 30.8065 15.2189 34.8102V38.7625L10.7767 34.7016L9.11573 26.5277C9.25885 26.5572 9.40239 26.5841 9.54679 26.6081L12.0417 27.0178C12.9102 27.1604 13.7561 26.5652 13.9009 25.7104C14.0475 24.8443 13.4532 24.0245 12.5732 23.8802L10.0782 23.4705C9.26184 23.3363 8.4856 23.0654 7.77087 22.665C7.76831 22.6637 7.76617 22.6621 7.76361 22.6604C5.5844 21.4367 4.23057 19.1421 4.23057 16.6725V7.95222C4.23057 5.32153 6.40422 3.18089 9.07643 3.18089H12.3087C16.762 3.18089 20.3847 6.74835 20.3847 11.1331C20.3847 12.0114 21.108 12.7236 22 12.7236C22.892 12.7236 23.6153 12.0114 23.6153 11.1331C23.6153 6.94479 26.9219 3.50478 31.0992 3.20487V5.83009C31.0992 6.25872 31.2752 6.66927 31.5866 6.96834L32.6235 7.96442L29.4724 11.0671C28.8418 11.6884 28.8418 12.6954 29.4724 13.3162C30.0948 13.9291 31.1346 13.9291 31.7567 13.3162L36.0642 9.07534C36.3697 8.77458 36.5397 8.36613 36.5371 7.94087C36.5346 7.5156 36.359 7.10926 36.0501 6.81229L34.3297 5.16001V3.18131H34.9236C37.5958 3.18131 39.7694 5.32153 39.7694 7.95222V16.6725Z" fill="white"/>
</svg>
