<svg width="44" height="44" viewBox="0 0 44 44" fill="none" xmlns="http://www.w3.org/2000/svg">
<path d="M6.72222 0C3.03139 0 0 3.03139 0 6.72222V37.2778C0 40.9686 3.03139 44 6.72222 44H37.2778C40.9686 44 44 40.9686 44 37.2778V6.72222C44 3.03139 40.9686 0 37.2778 0H6.72222ZM6.72222 3.66667H37.2778C38.9867 3.66667 40.3333 5.01328 40.3333 6.72222V37.2778C40.3333 38.9867 38.9867 40.3333 37.2778 40.3333H6.72222C5.01328 40.3333 3.66667 38.9867 3.66667 37.2778V6.72222C3.66667 5.01328 5.01328 3.66667 6.72222 3.66667ZM10.3889 7.33333C9.60749 7.33403 8.85605 7.63406 8.28906 8.17175C7.72207 8.70943 7.38262 9.44391 7.34049 10.2242C7.33564 10.2789 7.33325 10.3339 7.33333 10.3889V16.5C7.33333 20.2341 9.95503 23.3844 13.4444 24.2201V25.6667C13.4444 31.72 18.3911 36.6667 24.4444 36.6667C30.4978 36.6667 35.4444 31.72 35.4444 25.6667V18.9397C35.9555 18.5543 36.3327 18.0181 36.5226 17.4069C36.7126 16.7956 36.7058 16.1402 36.5033 15.533C36.3007 14.9258 35.9126 14.3976 35.3936 14.0228C34.8747 13.6481 34.2512 13.4458 33.6111 13.4444C32.9704 13.4451 32.3461 13.6472 31.8265 14.022C31.307 14.3969 30.9183 14.9256 30.7157 15.5334C30.513 16.1412 30.5065 16.7973 30.6971 17.409C30.8877 18.0207 31.2657 18.557 31.7778 18.9421V25.6667C31.7778 29.7382 28.516 33 24.4444 33C20.3729 33 17.1111 29.7382 17.1111 25.6667V24.2201C20.6005 23.3844 23.2222 20.2341 23.2222 16.5V10.3889C23.2221 10.3594 23.2213 10.33 23.2198 10.3006C23.2191 10.2918 23.2183 10.2831 23.2174 10.2743C23.2156 10.2344 23.2124 10.1946 23.2079 10.1549C23.149 9.38824 22.8032 8.67192 22.2395 8.14892C21.6758 7.62591 20.9356 7.33468 20.1667 7.33333C19.4117 7.33655 18.6847 7.61914 18.1258 8.12661C17.5668 8.63407 17.2155 9.3305 17.1396 10.0816C17.0637 10.8327 17.2686 11.5854 17.7147 12.1944C18.1608 12.8034 18.8165 13.2258 19.5556 13.38V16.5C19.5556 18.8245 17.7497 20.6706 15.4497 20.7611C15.3353 20.7503 15.2202 20.7503 15.1059 20.7611C12.8058 20.6706 11 18.8245 11 16.5V13.3824C11.7416 13.2306 12.4004 12.809 12.8488 12.1992C13.2973 11.5894 13.5034 10.8349 13.4274 10.0818C13.3513 9.32866 12.9984 8.63061 12.437 8.12284C11.8757 7.61507 11.1458 7.33373 10.3889 7.33333Z" fill="white"/>
</svg>
