<svg width="44" height="44" viewBox="0 0 44 44" fill="none" xmlns="http://www.w3.org/2000/svg">
<path d="M14 0C9.5 0 5.87045 1.75951 3.50391 4.42188C1.13736 7.08424 0 10.5556 0 14C0 19.1585 0.921893 22.4435 1.91406 24.8438C2.90623 27.244 3.77057 28.5934 4.01953 30.2891C4.01953 30.2904 4.01953 30.2917 4.01953 30.293C4.36888 32.6681 4.8218 35.7621 5.82422 38.4688C6.32543 39.8221 6.95735 41.1 7.9375 42.1523C8.91765 43.2046 10.3767 44 12 44C14.5198 44 16.5622 42.6271 17.7109 40.9336C18.8597 39.2401 19.393 37.2991 19.8555 35.4961C20.3179 33.6931 20.7084 31.9976 21.1523 31C21.3743 30.5012 21.5991 30.2071 21.7188 30.1016C21.8384 29.996 21.8021 30 22 30C22.1979 30 22.1616 29.996 22.2812 30.1016C22.4009 30.2071 22.6257 30.5012 22.8477 31C23.2916 31.9976 23.6821 33.6931 24.1445 35.4961C24.607 37.2991 25.1403 39.2401 26.2891 40.9336C27.4378 42.6271 29.4802 44 32 44C33.6233 44 35.0824 43.2047 36.0625 42.1523C37.0426 41.1 37.6746 39.8221 38.1758 38.4688C39.1782 35.7621 39.6311 32.6681 39.9805 30.293C39.9805 30.2917 39.9805 30.2904 39.9805 30.2891C40.2294 28.5934 41.0938 27.244 42.0859 24.8438C43.0781 22.4436 44 19.1585 44 14C44 10.5556 42.8626 7.08424 40.4961 4.42188C38.1295 1.75951 34.5 0 30 0C26.7778 0 24.5139 0.542079 23.0078 1.14453C22.4908 1.35134 22.0717 1.57783 21.707 1.79688C19.6792 0.770701 17.1292 0 14 0ZM14 4C21.5699 4 24.2695 9.00391 24.2695 9.00391C24.4013 9.23124 24.5766 9.43038 24.7854 9.58996C24.9941 9.74954 25.2323 9.86643 25.4863 9.93395C25.7402 10.0015 26.005 10.0183 26.2654 9.98348C26.5259 9.94866 26.7769 9.86287 27.0042 9.73101C27.2315 9.59915 27.4306 9.4238 27.5901 9.21498C27.7496 9.00616 27.8664 8.76797 27.9339 8.51399C28.0013 8.26002 28.0181 7.99525 27.9832 7.73481C27.9483 7.47436 27.8624 7.22335 27.7305 6.99609C27.7305 6.99609 27.0063 5.86068 25.5703 4.51172C26.5997 4.23513 28.0255 4 30 4C33.5 4 35.8705 5.24049 37.5039 7.07812C39.1374 8.91576 40 11.4444 40 14C40 18.7035 39.24 21.2617 38.3906 23.3164C37.5413 25.3711 36.4046 27.0886 36.0195 29.7109C35.6729 32.0672 35.207 34.9688 34.4258 37.0781C34.035 38.1333 33.5597 38.9675 33.1328 39.4258C32.706 39.8841 32.4607 40 32 40C30.7028 40 30.2335 39.6229 29.6016 38.6914C28.9697 37.7599 28.4548 36.2009 28.0195 34.5039C27.5843 32.8069 27.2281 31.0024 26.5039 29.375C26.1418 28.5613 25.678 27.7616 24.9297 27.1016C24.2763 26.5252 23.3652 26.1337 22.4141 26.0391C22.2778 26.0117 22.139 25.9986 22 26C21.8597 25.9983 21.7196 26.0114 21.582 26.0391C20.6323 26.1344 19.7228 26.526 19.0703 27.1016C18.322 27.7616 17.8582 28.5613 17.4961 29.375C16.7719 31.0024 16.4157 32.8069 15.9805 34.5039C15.5452 36.2009 15.0303 37.7599 14.3984 38.6914C13.7665 39.6229 13.2972 40 12 40C11.5393 40 11.294 39.8841 10.8672 39.4258C10.4403 38.9675 9.96501 38.1333 9.57422 37.0781C8.79303 34.9688 8.32707 32.0672 7.98047 29.7109V29.707C7.59484 27.0871 6.45825 25.37 5.60938 23.3164C4.76004 21.2617 4 18.7035 4 14C4 11.4444 4.86264 8.91576 6.49609 7.07812C8.12955 5.24049 10.5 4 14 4Z" fill="white"/>
</svg>
