<svg width="44" height="44" viewBox="0 0 44 44" fill="none" xmlns="http://www.w3.org/2000/svg">
<path d="M39.2589 0.000184298C38.9821 0.00336302 38.7111 0.0795959 38.4732 0.22117L31.666 4.30327L30.9662 3.60348C30.8174 3.4546 30.6402 3.33713 30.4452 3.25805C30.2501 3.17896 30.0411 3.13987 29.8307 3.14309C29.49 3.14884 29.1604 3.26518 28.8915 3.47457L0.606758 25.4749C0.430934 25.6117 0.286185 25.7842 0.182109 25.9812C0.0780327 26.1781 0.0170067 26.3949 0.00307652 26.6172C-0.0108536 26.8396 0.0226307 27.0623 0.101309 27.2707C0.179988 27.4791 0.302063 27.6684 0.459442 27.826L16.1732 43.5405C16.3308 43.6979 16.5201 43.82 16.7285 43.8987C16.9369 43.9774 17.1596 44.0109 17.3819 43.9969C17.6042 43.983 17.821 43.922 18.0179 43.8179C18.2148 43.7138 18.3874 43.569 18.5241 43.3932L40.5234 15.107C40.7582 14.8048 40.8747 14.4273 40.851 14.0453C40.8272 13.6633 40.6649 13.303 40.3945 13.0322L39.6947 12.3324L43.7766 5.52483C43.9569 5.22381 44.0313 4.87111 43.9879 4.52291C43.9446 4.17471 43.7859 3.85105 43.5372 3.60348L40.3945 0.460571C40.2457 0.311692 40.0685 0.194223 39.8734 0.115138C39.6784 0.0360519 39.4694 -0.00303917 39.2589 0.000184298ZM39.038 3.54823L40.4497 4.96009L37.3991 10.0366L33.9617 6.59907L39.038 3.54823ZM29.7263 6.80778L30.2972 7.37866C30.3033 7.38485 30.3094 7.39098 30.3156 7.39707L36.6011 13.6829L37.1904 14.2722L21.2618 34.7563L9.24319 22.7372L29.7263 6.80778ZM6.74495 24.6831L19.316 37.2547L17.1369 40.06L3.93979 26.8622L6.74495 24.6831Z" fill="white"/>
</svg>
