<svg width="44" height="44" viewBox="0 0 44 44" fill="none" xmlns="http://www.w3.org/2000/svg">
<path d="M37.0049 0C35.209 0 33.4136 0.674757 32.0521 2.02393L10.8003 23.0825C9.70351 24.1693 9.50986 25.8258 10.1885 27.1323C5.11878 29.7452 2.69023 33.3844 1.69018 36.4811C0.574365 39.9363 1.14682 42.8046 1.14682 42.8046C1.21961 43.1646 1.42415 43.4852 1.72111 43.7047C2.01806 43.9243 2.38645 44.0272 2.75541 43.9938C2.75541 43.9938 5.65614 43.7443 8.63468 42.671C10.1239 42.1344 11.6639 41.3944 12.9171 40.2655C14.1702 39.1367 15.1277 37.5127 15.1277 35.5708C15.1277 33.9645 15.5272 33.3078 15.843 32.9678C17.2051 34.2311 19.3799 34.214 20.7079 32.898L41.9577 11.8414C44.6808 9.14309 44.6808 4.72227 41.9577 2.02393C40.5961 0.674757 38.8007 0 37.0049 0ZM37.0049 2.95745C38.0261 2.95745 39.047 3.34642 39.835 4.12727C41.4111 5.68896 41.4111 8.17641 39.835 9.7381L18.5853 30.7947C18.3772 31.0009 18.0858 31.0009 17.8777 30.7947L17.5239 30.4442C17.378 30.1516 17.139 29.9148 16.8438 29.7702L13.9647 26.9173C13.8273 26.669 13.6211 26.4647 13.3705 26.3285L12.9229 25.885C12.7149 25.6788 12.7149 25.392 12.9229 25.1858L34.1747 4.12727C34.9627 3.34642 35.9837 2.95745 37.0049 2.95745ZM27.6758 13.2437C27.3773 13.2331 27.0823 13.311 26.8287 13.4675C26.5751 13.624 26.3743 13.8519 26.2522 14.1221C26.13 14.3922 26.092 14.6924 26.143 14.9841C26.1939 15.2758 26.3316 15.5458 26.5383 15.7595L27.4159 16.695C27.5482 16.845 27.7096 16.9671 27.8905 17.0541C28.0714 17.1411 28.2681 17.1913 28.4689 17.2015C28.6697 17.2118 28.8705 17.1819 29.0595 17.1138C29.2484 17.0457 29.4216 16.9406 29.5688 16.8049C29.716 16.6691 29.8342 16.5055 29.9163 16.3236C29.9985 16.1418 30.0429 15.9454 30.047 15.7462C30.0511 15.547 30.0148 15.349 29.9402 15.164C29.8656 14.979 29.7543 14.8107 29.6128 14.6691L28.7352 13.7337C28.6007 13.5859 28.4376 13.4664 28.2556 13.3823C28.0737 13.2981 27.8765 13.251 27.6758 13.2437ZM22.6175 18.2018C22.3187 18.2019 22.0268 18.2903 21.7791 18.4557C21.5313 18.6211 21.339 18.8559 21.2267 19.1303C21.1144 19.4046 21.0873 19.7058 21.1487 19.9955C21.2102 20.2852 21.3575 20.5501 21.5718 20.7564L22.5725 21.748C22.7108 21.8908 22.8765 22.0048 23.0598 22.0833C23.2432 22.1618 23.4405 22.2033 23.6402 22.2053C23.8399 22.2073 24.038 22.1698 24.2229 22.095C24.4078 22.0202 24.5757 21.9096 24.717 21.7696C24.8582 21.6297 24.9698 21.4633 25.0453 21.28C25.1208 21.0968 25.1586 20.9005 25.1566 20.7026C25.1546 20.5047 25.1127 20.3092 25.0335 20.1276C24.9542 19.9459 24.8392 19.7818 24.6952 19.6447L23.6944 18.6531C23.5545 18.5103 23.3871 18.3968 23.2021 18.3193C23.0171 18.2418 22.8183 18.2018 22.6175 18.2018ZM18.1142 22.6641C17.8155 22.6642 17.5235 22.7526 17.2758 22.918C17.028 23.0834 16.8357 23.3183 16.7234 23.5926C16.6111 23.8669 16.584 24.1682 16.6455 24.4579C16.7069 24.7475 16.8543 25.0125 17.0685 25.2187L18.0693 26.2104C18.2076 26.3531 18.3732 26.4671 18.5566 26.5456C18.7399 26.6241 18.9372 26.6656 19.1369 26.6676C19.3366 26.6696 19.5347 26.6321 19.7196 26.5573C19.9045 26.4825 20.0725 26.3719 20.2137 26.232C20.3549 26.092 20.4665 25.9256 20.542 25.7424C20.6175 25.5591 20.6553 25.3628 20.6533 25.165C20.6513 24.9671 20.6094 24.7716 20.5302 24.5899C20.451 24.4083 20.3359 24.2441 20.1919 24.107L19.1912 23.1154C19.0512 22.9726 18.8838 22.8591 18.6988 22.7816C18.5139 22.7041 18.3151 22.6641 18.1142 22.6641ZM12.2525 29.4293L13.7106 30.8722C12.8372 31.7879 12.1255 33.329 12.1255 35.5708C12.1255 36.6037 11.7069 37.3349 10.8961 38.0654C10.0852 38.7958 8.87322 39.4193 7.61049 39.8743C6.26381 40.3596 4.97461 40.6387 3.99068 40.8098C3.99598 39.9456 4.1079 38.7495 4.54773 37.3875C5.3817 34.805 7.31324 31.7272 12.2525 29.4293Z" fill="white"/>
</svg>
