<svg width="44" height="44" viewBox="0 0 44 44" fill="none" xmlns="http://www.w3.org/2000/svg">
<g clip-path="url(#clip0_214_105)">
<path d="M31.1551 0.303223H28.8657C25.9823 0.303223 23.4447 1.8125 22 4.08347C20.5553 1.8125 18.0177 0.303223 15.1347 0.303223H12.8449C9.62212 0.303223 7 2.92801 7 6.15402V12.4345C7 14.7028 8.02048 16.8123 9.8002 18.2219C10.0242 18.3991 10.3012 18.4955 10.5869 18.4955H12.5041L13.0511 21.279C11.6138 21.8232 10.5886 23.2146 10.5886 24.8417C10.5886 26.9412 12.2949 28.6495 14.3925 28.6495H14.4998L15.028 31.3381C13.4425 31.797 12.2791 33.2623 12.2791 34.9955C12.2791 37.0952 13.9854 38.8032 16.083 38.8032H16.4952L16.9721 41.2306C17.3222 43.0111 18.8916 44.3032 20.7045 44.3032H23.2955C25.1081 44.3032 26.6778 43.0111 27.0279 41.2306L27.5048 38.8032H27.917C30.0146 38.8032 31.7209 37.0952 31.7209 34.9955C31.7209 33.2623 30.5579 31.797 28.972 31.3381L29.5002 28.6495H29.6078C31.7051 28.6495 33.4114 26.9412 33.4114 24.8417C33.4114 23.2146 32.3862 21.8232 30.9489 21.279L31.4959 18.4955H33.4131C33.6988 18.4955 33.9761 18.3991 34.1998 18.2215C35.9795 16.8123 37 14.7028 37 12.4345V6.15402C37 2.92801 34.3782 0.303223 31.1551 0.303223V0.303223ZM24.5396 40.7405C24.4229 41.334 23.8998 41.7647 23.2955 41.7647H20.7045C20.1002 41.7647 19.5771 41.334 19.4604 40.7405L19.0797 38.8032H24.9206L24.5396 40.7405ZM27.917 36.2647H16.083C15.3838 36.2647 14.8151 35.6954 14.8151 34.9955C14.8151 34.2955 15.3838 33.7262 16.083 33.7262H27.917C28.6162 33.7262 29.1849 34.2955 29.1849 34.9955C29.1849 35.6954 28.6162 36.2647 27.917 36.2647ZM26.4169 31.1877H17.5831L17.0841 28.6495H26.9159L26.4169 31.1877ZM29.6078 26.111H14.3925C13.6933 26.111 13.1245 25.5417 13.1245 24.8417C13.1245 24.1418 13.6933 23.5725 14.3925 23.5725H29.6078C30.3067 23.5725 30.8758 24.1418 30.8758 24.8417C30.8758 25.5417 30.3067 26.111 29.6078 26.111ZM28.4123 21.034H15.5877L15.0887 18.4955H28.9113L28.4123 21.034ZM34.4644 12.4345C34.4644 13.7816 33.9148 15.0439 32.9436 15.9569H11.0564C10.0852 15.0439 9.53594 13.7816 9.53594 12.4345V6.15402C9.53594 4.32751 11.0202 2.84174 12.8449 2.84174H15.1343C18.2209 2.84174 20.732 5.35541 20.732 8.44479C20.732 9.14572 21.2998 9.71405 22 9.71405C22.7002 9.71405 23.268 9.14572 23.268 8.44479C23.268 5.35541 25.7791 2.84174 28.8657 2.84174H31.1551C32.9798 2.84174 34.4641 4.32751 34.4641 6.15402V12.4345H34.4644Z" fill="white"/>
</g>
<defs>
<clipPath id="clip0_214_105">
<rect width="44" height="44" fill="white"/>
</clipPath>
</defs>
</svg>
