<svg width="44" height="44" viewBox="0 0 44 44" fill="none" xmlns="http://www.w3.org/2000/svg">
<path d="M42.8949 5.43379L38.5661 1.10502C36.7873 -0.36834 35.0085 -0.36834 33.2296 1.10502C31.8623 2.4723 31.7667 4.63619 32.9406 6.11626L28.4215 10.6357L23.8097 6.02394C23.3142 5.52846 22.5106 5.52846 22.0148 6.02394C21.519 6.51976 21.519 7.32342 22.0148 7.8189L23.4784 9.28253L5.48758 27.2734C5.18747 27.5735 5.05722 28.0038 5.14047 28.4198L6.58093 35.6241L0.371613 41.8334C-0.123871 42.3289 -0.123871 43.1326 0.371613 43.6284C0.970154 44.1239 1.56836 44.1239 2.16656 43.6284L8.37589 37.4191L15.5802 38.8599C15.9911 38.9401 16.3734 38.8243 16.7266 38.5127L34.7174 20.5216L36.181 21.9852C36.7792 22.481 37.3778 22.481 37.976 21.9852C38.4715 21.4897 38.4715 20.6861 37.976 20.1902L33.3642 15.5788L37.8837 11.0594C39.5907 12.2343 41.2611 12.1379 42.8949 10.7703C43.6076 10.0576 44 9.10998 44 8.10189C44 7.09414 43.6076 6.14647 42.8949 5.43379ZM15.412 36.2374L9.03754 34.9624L7.76257 28.5883L11.1071 25.2438L18.7562 32.8929L15.412 36.2374ZM29.9952 21.6539L27.7447 19.4034C27.2492 18.9075 26.4456 18.9075 25.9498 19.4034C25.4543 19.8988 25.4543 20.7025 25.9498 21.1983L28.2003 23.4488L25.2733 26.3761L23.0225 24.1256C22.527 23.6298 21.7234 23.6298 21.2276 24.1256C20.7321 24.6211 20.7321 25.4247 21.2276 25.9205L23.4784 28.171L20.5511 31.0983L12.9017 23.4488L25.273 11.0775L32.9225 18.7269L29.9952 21.6539ZM31.5693 13.7838L30.2164 12.4307L34.7174 7.92934L36.0706 9.28253L31.5693 13.7838ZM41.0999 8.97537C40.6182 9.45675 39.8347 9.45675 39.3533 8.97537L35.0246 4.64659C34.5432 4.16521 34.5432 3.3817 35.0246 2.89998C35.6067 2.41792 36.1891 2.41792 36.7712 2.89998L41.0996 7.22875C41.582 7.81084 41.582 8.39294 41.0999 8.97537Z" fill="white"/>
</svg>
