<svg width="44" height="44" viewBox="0 0 44 44" fill="none" xmlns="http://www.w3.org/2000/svg">
<path fill-rule="evenodd" clip-rule="evenodd" d="M6.37086 4.60254C3.81113 5.9263 2.90394 6.8285 1.51836 9.42632C-0.0420524 12.3522 -0.160766 12.9924 0.119186 17.0075C0.309955 19.7492 1.09784 23.2557 2.2206 26.3628C3.20811 29.0962 4.32319 32.8944 4.69764 34.8041C5.64322 39.6226 7.85744 41.8433 11.2653 41.3907C14.4788 40.9639 15.3134 40.0044 17.0651 34.7216C17.8796 32.2665 18.8648 30.1528 19.2551 30.0242C20.0454 29.7634 21.5278 32.881 22.1338 36.0799C22.7156 39.1496 24.5872 40.9931 27.5173 41.382C29.7008 41.672 30.2058 41.5053 31.7337 39.9933C32.9758 38.7637 33.6662 37.2873 34.1599 34.8041C34.5397 32.8944 35.3666 29.7686 35.9968 27.8573C36.6269 25.9459 37.1426 24.1736 37.1426 23.9199C37.1426 23.6661 36.2041 23.9012 35.0577 24.4426C32.9072 25.4576 31.9741 27.5006 30.8997 33.5458C30.6836 34.7626 30.0233 36.3413 29.4321 37.054C27.8941 38.9075 26.4849 37.8363 25.3007 33.9124C23.4019 27.6187 21.4038 25.3062 18.4909 26.0301C16.67 26.4826 15.3098 28.5776 13.7571 33.3207C12.2652 37.879 10.9966 38.959 9.39836 37.0318C8.79711 36.3073 8.12026 34.5971 7.89347 33.2312C7.66726 31.8654 6.58053 28.0654 5.47962 24.7864C2.53717 16.0253 3.00257 11.0395 7.03471 8.11718C10.5654 5.55853 16.6978 6.34085 20.3064 9.81047C21.4593 10.9191 22.8591 11.7394 23.4166 11.633C24.8004 11.3693 25.052 9.54794 23.882 8.26803C22.9849 7.2869 23.0115 7.19218 24.273 6.85773C26.5416 6.25607 28.4676 6.46364 30.9411 7.57633C32.7312 8.38146 33.629 8.49489 34.6478 8.04467C36.3334 7.30035 36.093 6.5379 33.6579 4.90425C30.9051 3.05776 26.9267 2.60871 22.7735 3.6752C19.8712 4.4207 18.9911 4.43941 17.1626 3.79273C13.538 2.51107 9.88443 2.78529 6.37086 4.60254ZM37.8808 10.4121C35.2012 11.5599 33.0082 12.7691 33.0082 13.0994C33.0082 13.4292 33.4547 14.1881 34.0011 14.7851C34.9425 15.8153 34.8604 16.0054 32.4034 18.4833C28.6205 22.2997 29.7799 22.8247 36.1562 20.1825C38.9723 19.0148 41.2769 17.7782 41.2769 17.4338C41.2769 17.0894 40.8304 16.3188 40.284 15.7218C39.3426 14.6915 39.4223 14.5039 41.8297 12.0756C43.2259 10.6676 44.188 9.22811 43.9689 8.87612C43.4379 8.02596 43.4757 8.01602 37.8808 10.4121Z" fill="white"/>
</svg>
