<svg width="44" height="44" viewBox="0 0 44 44" fill="none" xmlns="http://www.w3.org/2000/svg">
<path d="M15.3333 0V3.38462C18.2784 3.38462 19.4518 4.43194 20.0575 5.51322C12.4471 6.54783 6.42564 11.9614 5.09424 19.1211C2.83551 19.7219 1 21.378 1 23.6923C1 25.9838 2.80637 27.6187 5.03125 28.2404C6.08852 34.0263 10.1335 38.846 15.7043 41.0319L15.7218 40.9955C16.5673 41.7694 17.6617 42.3077 18.9167 42.3077C19.4545 42.3077 19.9661 42.2154 20.4669 42.0664L20.4634 42.0697C20.5421 42.0465 20.6286 42.0901 20.7083 42.0697V44H24.2917V42.0697C24.3714 42.0901 24.4579 42.0465 24.5366 42.0697L24.5331 42.0664C25.0337 42.2146 25.5455 42.3077 26.0833 42.3077C27.3701 42.3077 28.498 41.7453 29.3517 40.9393L29.3797 40.9988C34.9114 38.7992 38.9173 33.9972 39.9688 28.2404C42.1936 27.6187 44 25.9838 44 23.6923C44 21.4486 42.2525 19.86 40.0982 19.1971C38.7507 12.4795 33.3743 7.30918 26.4333 5.78095C26.4568 5.74147 26.4456 5.70696 26.4718 5.67188C26.7357 5.31877 26.9642 5.07692 27.875 5.07692V1.69231C25.9191 1.69231 24.3574 2.6364 23.5463 3.72175C23.4725 3.82055 23.5163 3.90083 23.4518 3.9994C22.1451 1.75601 19.3197 0 15.3333 0ZM22.5 8.46154C29.8328 8.46154 35.8872 13.731 36.8473 20.5324L37.0573 22H38.625C39.6186 22 40.4167 22.7538 40.4167 23.6923C40.4167 24.6308 39.6186 25.3846 38.625 25.3846H36.8438L36.6654 26.8885C36.2371 30.5301 34.2792 33.7246 31.4338 35.9087C31.4389 35.7841 31.4583 35.6645 31.4583 35.5385C31.4583 33.8317 30.9893 32.2596 30.1076 31.0102C29.2259 29.7608 27.7991 28.7692 26.0833 28.7692C25.5455 28.7692 25.0339 28.8615 24.5331 29.0105L24.5366 29.0072C23.2274 29.3923 21.7726 29.3923 20.4634 29.0072L20.4669 29.0105C19.9663 28.8624 19.4545 28.7692 18.9167 28.7692C17.2009 28.7692 15.7741 29.7608 14.8924 31.0102C14.0107 32.2596 13.5417 33.8317 13.5417 35.5385C13.5417 35.6634 13.5612 35.7819 13.5662 35.9053C10.7236 33.7204 8.76296 30.5286 8.33464 26.8885L8.15617 25.3846H6.375C5.38144 25.3846 4.58333 24.6308 4.58333 23.6923C4.58333 22.7538 5.38144 22 6.375 22H8.15617L8.33464 20.4961C9.1317 13.7203 15.1671 8.46154 22.5 8.46154ZM16.2292 20.3077C14.7457 20.3077 13.5417 21.4449 13.5417 22.8462C13.5417 24.2474 14.7457 25.3846 16.2292 25.3846C17.7127 25.3846 18.9167 24.2474 18.9167 22.8462C18.9167 21.4449 17.7127 20.3077 16.2292 20.3077ZM28.7708 20.3077C27.2873 20.3077 26.0833 21.4449 26.0833 22.8462C26.0833 24.2474 27.2873 25.3846 28.7708 25.3846C30.2543 25.3846 31.4583 24.2474 31.4583 22.8462C31.4583 21.4449 30.2543 20.3077 28.7708 20.3077ZM18.9167 32.1538C18.9988 32.1538 19.1763 32.1747 19.3961 32.2398H19.3996C21.4157 32.8328 23.5878 32.8328 25.6039 32.2398H25.6074L25.6109 32.2365C25.8266 32.1723 26.0012 32.1538 26.0833 32.1538C26.3474 32.1538 26.7111 32.2996 27.1261 32.8876C27.5411 33.4757 27.875 34.4411 27.875 35.5385C27.875 36.6358 27.5411 37.6013 27.1261 38.1893C26.7111 38.7773 26.3474 38.9231 26.0833 38.9231C26.0012 38.9231 25.8237 38.9022 25.6039 38.8371H25.6004C25.175 38.712 24.7283 38.7211 24.2917 38.6487V35.5385H20.7083V38.6487C20.2711 38.7211 19.8222 38.7118 19.3961 38.8371H19.3926L19.3891 38.8404C19.1733 38.9046 18.9988 38.9231 18.9167 38.9231C18.6526 38.9231 18.2889 38.7773 17.8739 38.1893C17.4589 37.6013 17.125 36.6358 17.125 35.5385C17.125 34.4411 17.4589 33.4757 17.8739 32.8876C18.2889 32.2996 18.6526 32.1538 18.9167 32.1538Z" fill="white"/>
</svg>
