<?xml version="1.0" encoding="utf-8"?><svg xmlns="http://www.w3.org/2000/svg" xmlns:xlink="http://www.w3.org/1999/xlink"><symbol viewBox="0 0 26 26" id="facebook" xmlns="http://www.w3.org/2000/svg"><path d="M13 1C6.384 1 1 6.384 1 13s5.384 12 12 12 12-5.384 12-12S19.616 1 13 1zm0 2c5.535 0 10 4.465 10 10a9.976 9.976 0 01-8.512 9.879v-6.963h2.848l.447-2.893h-3.295v-1.58c0-1.2.395-2.267 1.518-2.267h1.805V6.652c-.317-.043-.988-.136-2.256-.136-2.648 0-4.2 1.398-4.2 4.584v1.923H8.633v2.893h2.723v6.938A9.975 9.975 0 013 13C3 7.465 7.465 3 13 3z"/></symbol><symbol viewBox="0 0 26 26" id="instagram" xmlns="http://www.w3.org/2000/svg"><path d="M8.46 1C4.628 1 1.5 4.263 1.5 8.263v9.474c0 4 3.127 7.263 6.96 7.263h9.08c3.833 0 6.96-3.263 6.96-7.263V8.263c0-4-3.128-7.263-6.96-7.263H8.46zm0 1.895h9.08c2.851 0 5.144 2.392 5.144 5.368v9.474c0 2.975-2.293 5.368-5.145 5.368H8.462c-2.853 0-5.145-2.393-5.145-5.368V8.263c0-2.976 2.292-5.368 5.145-5.368zM19.054 5.42c-.67 0-1.21.565-1.21 1.263s.54 1.263 1.21 1.263c.668 0 1.21-.565 1.21-1.263s-.542-1.263-1.21-1.263zM13 6.684c-3.332 0-6.053 2.84-6.053 6.316 0 3.477 2.721 6.316 6.053 6.316s6.053-2.84 6.053-6.316c0-3.477-2.721-6.316-6.053-6.316zm0 1.895c2.35 0 4.237 1.968 4.237 4.421 0 2.453-1.887 4.421-4.237 4.421S8.763 15.453 8.763 13c0-2.453 1.887-4.421 4.237-4.421z"/></symbol><symbol viewBox="0 0 26 26" id="twitter" xmlns="http://www.w3.org/2000/svg"><path d="M17.38 3c-2.973 0-5.387 2.438-5.452 5.44-2.63-.32-4.342-1.317-5.392-2.3C5.37 5.05 5.002 4.082 5.002 4.082a.833.833 0 00-.655-.519.81.81 0 00-.765.326s-.987 1.333-.987 3.278c0 1.111.346 1.934.759 2.631a3.613 3.613 0 00-.118-.043.811.811 0 00-.83.057.83.83 0 00-.355.764s.316 2.345 2.489 4.058l-.227.058a.818.818 0 00-.556.48.844.844 0 00.042.741s.368.633 1.14 1.298c.457.395 1.13.802 1.922 1.179-.973.36-2.424.721-4.54.721a.813.813 0 00-.748.49.844.844 0 00.13.893s.628.701 1.869 1.311C4.812 22.415 6.724 23 9.44 23c4.775 0 8.205-2.324 10.346-5.27 2.142-2.944 3.07-6.474 3.07-9.174 0-.172-.01-.34-.026-.508 1.157-1.13 1.59-1.98 1.611-2.022a.561.561 0 00-.096-.635.541.541 0 00-.623-.118l-.088.041-.23.107a4.92 4.92 0 00.522-1.145.56.56 0 00-.185-.603.54.54 0 00-.622-.037 7.93 7.93 0 01-1.979.895A5.41 5.41 0 0017.382 3zm0 1.667c2.127 0 3.834 1.731 3.834 3.889 0 2.299-.851 5.575-2.748 8.185-1.898 2.61-4.765 4.592-9.025 4.592-2.062 0-3.434-.378-4.462-.787 1.077-.17 2.004-.396 2.67-.658 1.155-.454 1.779-.978 1.779-.978a.834.834 0 00.264-.824.837.837 0 00-.215-.394.819.819 0 00-.385-.223c-1.491-.378-2.447-.99-3.047-1.5l.856-.216a.82.82 0 00.433-.276.84.84 0 00-.336-1.31c-1.777-.694-2.524-1.675-2.905-2.496.464.097.896.218 1.514.218a.815.815 0 00.51-.18.844.844 0 00.234-1.007.828.828 0 00-.377-.392S4.238 9.5 4.238 7.167c0-.42.115-.685.198-1.002.287.39.523.768.985 1.2 1.41 1.32 3.74 2.665 7.261 2.856a.81.81 0 00.61-.227.835.835 0 00.256-.605v-.833c0-2.158 1.707-3.89 3.833-3.89z"/></symbol><symbol viewBox="0 0 26 27" id="youtube" xmlns="http://www.w3.org/2000/svg"><path d="M12.916 4c-3.754 0-7.242.269-9.232.687a.914.914 0 00-.013.003C2.171 5.028.76 6.107.463 7.797l-.001.007C.233 9.166 0 10.94 0 13.5c0 2.554.234 4.282.523 5.716.304 1.64 1.684 2.752 3.206 3.094a.843.843 0 00.022.006c2.077.411 5.466.684 9.22.684 3.754 0 7.145-.273 9.223-.684a.885.885 0 00.022-.006c1.499-.338 2.91-1.417 3.208-3.107l.002-.012c.225-1.39.517-3.164.574-5.727v-.02c0-2.564-.292-4.35-.577-5.766-.302-1.643-1.683-2.758-3.207-3.1a.888.888 0 00-.07-.013C20.117 4.278 16.67 4 12.915 4zm0 1.781c3.64 0 7.013.274 8.928.542.941.217 1.689.878 1.836 1.679l.003.015c.274 1.364.542 2.985.543 5.415-.055 2.437-.323 4.073-.548 5.463-.154.866-.874 1.454-1.842 1.674-1.86.367-5.207.65-8.865.65-3.659 0-7.004-.284-8.864-.65-.944-.216-1.695-.879-1.843-1.682a.797.797 0 00-.003-.015c-.272-1.349-.488-2.92-.488-5.372 0-2.447.216-4.084.435-5.392.153-.869.874-1.458 1.845-1.679 1.723-.36 5.2-.648 8.863-.648zm-2.007 2.686c-1.06.035-2.045.892-2.045 2.056v5.361c0 1.553 1.752 2.56 3.095 1.798v-.001L16.68 15c1.353-.768 1.353-2.828 0-3.595l-4.721-2.68a1.984 1.984 0 00-1.05-.259zm.007 1.756a.39.39 0 01.17.053l4.722 2.681c.24.136.24.357 0 .493l-4.722 2.68c-.237.135-.45.01-.45-.246v-5.36c0-.128.054-.223.137-.27a.26.26 0 01.143-.031z"/></symbol></svg>