<svg width="24" height="24" viewBox="0 0 24 24" fill="none" xmlns="http://www.w3.org/2000/svg">
<path d="M4.12771 0L2.97521 6.51172V9V10H3.17665C3.47707 12.012 4.58285 13.6871 6.20609 14.7578C2.57788 16.2461 0 19.8153 0 24H1.98347C1.98347 21.4655 3.14471 19.2159 4.95868 17.752V18.4141L9.91736 23.4141L14.876 18.4141V17.752C16.69 19.2159 17.8512 21.4655 17.8512 24H19.8347C19.8347 19.8153 17.2568 16.2461 13.6286 14.7578C15.2519 13.6871 16.3576 12.012 16.6581 10H16.8595V9V6.51172L15.707 0H14.876H4.12771ZM19.8347 0V8H21.8182V0H19.8347ZM5.78964 2H14.0451L14.876 6.68945V8H4.95868V6.68945L5.78964 2ZM8.92562 3V4H7.93388V6H8.92562V7H10.9091V6H11.9008V4H10.9091V3H8.92562ZM5.15819 10H14.6765C14.207 12.2719 12.3156 14 9.91736 14C7.51913 14 5.62773 12.2719 5.15819 10ZM19.8347 10V12H21.8182V10H19.8347ZM9.91736 16C10.9715 16 11.9738 16.2105 12.8926 16.584V17.5859L9.91736 20.5859L6.94215 17.5859V16.584C7.86087 16.2105 8.86324 16 9.91736 16Z" fill="white"/>
</svg>
