<svg width="24" height="24" viewBox="0 0 24 24" fill="none" xmlns="http://www.w3.org/2000/svg">
<path d="M3.66667 0C1.65348 0 0 1.65348 0 3.66667V20.3333C0 22.3465 1.65348 24 3.66667 24H20.3333C22.3465 24 24 22.3465 24 20.3333V3.66667C24 1.65348 22.3465 0 20.3333 0H3.66667ZM3.66667 2H20.3333C21.2655 2 22 2.73452 22 3.66667V20.3333C22 21.2655 21.2655 22 20.3333 22H3.66667C2.73452 22 2 21.2655 2 20.3333V3.66667C2 2.73452 2.73452 2 3.66667 2ZM5.66667 4C5.24045 4.00038 4.83057 4.16403 4.5213 4.45732C4.21204 4.7506 4.02688 5.15122 4.00391 5.57682C4.00126 5.6067 3.99995 5.63668 4 5.66667V9C4 11.0368 5.43002 12.7551 7.33333 13.2109V14C7.33333 17.3018 10.0315 20 13.3333 20C16.6351 20 19.3333 17.3018 19.3333 14V10.3307C19.6121 10.1205 19.8178 9.82808 19.9214 9.49467C20.0251 9.16126 20.0214 8.80373 19.9109 8.47254C19.8004 8.14134 19.5887 7.85321 19.3056 7.64881C19.0226 7.44441 18.6825 7.33406 18.3333 7.33333C17.9839 7.3337 17.6433 7.4439 17.3599 7.64837C17.0765 7.85284 16.8646 8.14122 16.754 8.47275C16.6434 8.80427 16.6399 9.16216 16.7439 9.49581C16.8478 9.82946 17.054 10.122 17.3333 10.332V14C17.3333 16.2209 15.5542 18 13.3333 18C11.1125 18 9.33333 16.2209 9.33333 14V13.2109C11.2367 12.7551 12.6667 11.0368 12.6667 9V5.66667C12.6666 5.6506 12.6662 5.63454 12.6654 5.61849C12.665 5.61371 12.6645 5.60894 12.6641 5.60417C12.663 5.58241 12.6613 5.5607 12.6589 5.53906C12.6267 5.12086 12.4381 4.73014 12.1306 4.44486C11.8232 4.15959 11.4194 4.00074 11 4C10.5882 4.00176 10.1917 4.15589 9.88679 4.43269C9.58191 4.7095 9.3903 5.08936 9.34889 5.49906C9.30748 5.90876 9.41921 6.31929 9.66254 6.65149C9.90587 6.9837 10.2636 7.21406 10.6667 7.29818V9C10.6667 10.2679 9.68167 11.2749 8.42708 11.3242C8.36472 11.3183 8.30195 11.3183 8.23958 11.3242C6.985 11.2749 6 10.2679 6 9V7.29948C6.40449 7.21669 6.76384 6.98671 7.00845 6.6541C7.25306 6.32149 7.36551 5.90992 7.32401 5.49914C7.28251 5.08836 7.09002 4.7076 6.78383 4.43064C6.47763 4.15368 6.07954 4.00022 5.66667 4Z" fill="#0E57CA"/>
</svg>
