<svg width="24" height="24" viewBox="0 0 24 24" fill="none" xmlns="http://www.w3.org/2000/svg">
<path d="M7.63636 0C5.18182 0 3.20206 0.959733 1.91122 2.41193C0.620378 3.86413 0 5.75758 0 7.63636C0 10.4501 0.502851 12.2419 1.04403 13.5511C1.58522 14.8604 2.05667 15.5964 2.19247 16.5213C2.19247 16.522 2.19247 16.5227 2.19247 16.5234C2.38302 17.819 2.63007 19.5066 3.17685 20.983C3.45023 21.7211 3.79492 22.4182 4.32955 22.9922C4.86417 23.5661 5.66004 24 6.54545 24C7.91989 24 9.03391 23.2511 9.66051 22.3274C10.2871 21.4037 10.578 20.345 10.8303 19.3615C11.0825 18.378 11.2955 17.4532 11.5376 16.9091C11.6587 16.637 11.7813 16.4766 11.8466 16.419C11.9119 16.3615 11.8921 16.3636 12 16.3636C12.1079 16.3636 12.0881 16.3615 12.1534 16.419C12.2187 16.4766 12.3413 16.637 12.4624 16.9091C12.7045 17.4532 12.9175 18.378 13.1697 19.3615C13.422 20.345 13.7129 21.4037 14.3395 22.3274C14.9661 23.2511 16.0801 24 17.4545 24C18.34 24 19.1358 23.5662 19.6705 22.9922C20.2051 22.4182 20.5498 21.7211 20.8232 20.983C21.3699 19.5066 21.617 17.819 21.8075 16.5234C21.8075 16.5227 21.8075 16.522 21.8075 16.5213C21.9433 15.5964 22.4148 14.8604 22.956 13.5511C23.4972 12.2419 24 10.4501 24 7.63636C24 5.75758 23.3796 3.86413 22.0888 2.41193C20.7979 0.959733 18.8182 0 16.3636 0C14.6061 0 13.3712 0.295679 12.5497 0.62429C12.2677 0.737094 12.0391 0.860636 11.8402 0.980114C10.7341 0.420382 9.34319 0 7.63636 0ZM7.63636 2.18182C11.7654 2.18182 13.2379 4.91122 13.2379 4.91122C13.3098 5.03522 13.4054 5.14385 13.5193 5.23089C13.6332 5.31793 13.7631 5.38169 13.9016 5.41852C14.0401 5.45535 14.1845 5.46453 14.3266 5.44554C14.4687 5.42654 14.6056 5.37975 14.7296 5.30782C14.8536 5.2359 14.9621 5.14025 15.0492 5.02635C15.1362 4.91245 15.1999 4.78253 15.2367 4.644C15.2735 4.50547 15.2826 4.36105 15.2635 4.21899C15.2445 4.07693 15.1977 3.94001 15.1257 3.81605C15.1257 3.81605 14.7307 3.19674 13.9474 2.46094C14.5089 2.31007 15.2867 2.18182 16.3636 2.18182C18.2727 2.18182 19.5657 2.85845 20.4567 3.8608C21.3477 4.86314 21.8182 6.24242 21.8182 7.63636C21.8182 10.2019 21.4036 11.5973 20.9403 12.718C20.4771 13.8388 19.857 14.7756 19.647 16.206C19.458 17.4912 19.2038 19.0739 18.7777 20.2244C18.5645 20.8 18.3053 21.255 18.0724 21.505C17.8396 21.7549 17.7059 21.8182 17.4545 21.8182C16.747 21.8182 16.491 21.6125 16.1463 21.1044C15.8016 20.5963 15.5208 19.7459 15.2834 18.8203C15.046 17.8947 14.8517 16.9104 14.4567 16.0227C14.2592 15.5789 14.0062 15.1427 13.598 14.7827C13.2416 14.4683 12.7446 14.2547 12.2259 14.2031C12.1515 14.1882 12.0758 14.1811 12 14.1818C11.9235 14.1809 11.8471 14.188 11.772 14.2031C11.254 14.2551 10.7579 14.4687 10.402 14.7827C9.99383 15.1427 9.74084 15.5789 9.54332 16.0227C9.14829 16.9104 8.95404 17.8947 8.71662 18.8203C8.4792 19.7459 8.19837 20.5963 7.85369 21.1044C7.50901 21.6125 7.25302 21.8182 6.54545 21.8182C6.29414 21.8182 6.16039 21.7549 5.92756 21.505C5.69473 21.255 5.43546 20.8 5.2223 20.2244C4.7962 19.0739 4.54204 17.4912 4.35298 16.206V16.2038C4.14264 14.7748 3.52268 13.8382 3.05966 12.718C2.59639 11.5973 2.18182 10.2019 2.18182 7.63636C2.18182 6.24242 2.65235 4.86314 3.54332 3.8608C4.4343 2.85845 5.72727 2.18182 7.63636 2.18182Z" fill="#0E57CA"/>
</svg>
