<svg width="24" height="24" viewBox="0 0 24 24" fill="none" xmlns="http://www.w3.org/2000/svg">
<path fill-rule="evenodd" clip-rule="evenodd" d="M3.47501 1.87411C2.0788 2.59616 1.58397 3.08827 0.828194 4.50527C-0.0229377 6.10118 -0.0876905 6.45041 0.0650106 8.64048C0.169066 10.1359 0.59882 12.0485 1.21124 13.7433C1.74988 15.2343 2.3581 17.3061 2.56235 18.3477C3.07812 20.976 4.28588 22.1873 6.14471 21.9404C7.89755 21.7076 8.35275 21.1842 9.30826 18.3027C9.75251 16.9635 10.2899 15.8106 10.5028 15.7404C10.9339 15.5982 11.7425 17.2987 12.073 19.0436C12.3903 20.718 13.4112 21.7235 15.0094 21.9356C16.2004 22.0938 16.4759 22.0029 17.3093 21.1782C17.9868 20.5075 18.3634 19.7022 18.6327 18.3477C18.8398 17.3061 19.2909 15.6011 19.6346 14.5585C19.9783 13.5159 20.2596 12.5493 20.2596 12.4108C20.2596 12.2724 19.7477 12.4006 19.1224 12.696C17.9494 13.2496 17.4404 14.364 16.8544 17.6614C16.7365 18.325 16.3763 19.1861 16.0539 19.5749C15.215 20.5859 14.4463 20.0016 13.8004 17.8613C12.7647 14.4284 11.6748 13.167 10.0859 13.5619C9.09274 13.8087 8.35082 14.9514 7.50387 17.5386C6.69011 20.0249 5.99813 20.614 5.12638 19.5628C4.79842 19.1676 4.42923 18.2348 4.30553 17.4898C4.18214 16.7448 3.58938 14.672 2.98888 12.8835C1.38391 8.10468 1.63777 5.38519 3.83712 3.79119C5.76295 2.39556 9.10788 2.82228 11.0762 4.7148C11.7051 5.31949 12.4686 5.76694 12.7727 5.7089C13.5275 5.56506 13.6648 4.5716 13.0266 3.87347C12.5372 3.33831 12.5517 3.28664 13.2398 3.10422C14.4772 2.77604 15.5278 2.88926 16.877 3.49618C17.8534 3.93534 18.3431 3.99721 18.8988 3.75164C19.8182 3.34564 19.6871 2.92976 18.3589 2.03868C16.8573 1.03151 14.6873 0.786569 12.4219 1.36829C10.8388 1.77493 10.3588 1.78513 9.36142 1.4324C7.38436 0.733309 5.39151 0.882886 3.47501 1.87411ZM20.6623 5.04298C19.2007 5.66903 18.0045 6.32857 18.0045 6.50877C18.0045 6.68864 18.248 7.10261 18.546 7.42824C19.0595 7.99019 19.0148 8.09384 17.6746 9.44545C15.6112 11.5271 16.2436 11.8135 19.7216 10.3723C21.2576 9.73536 22.5147 9.06083 22.5147 8.87298C22.5147 8.68513 22.2711 8.26478 21.9731 7.93916C21.4596 7.37721 21.5031 7.27483 22.8162 5.95033C23.5778 5.18235 24.1026 4.39715 23.983 4.20515C23.6934 3.74143 23.714 3.73601 20.6623 5.04298Z" fill="#0E57CA"/>
</svg>
