<svg width="24" height="24" viewBox="0 0 24 24" fill="none" xmlns="http://www.w3.org/2000/svg">
<path d="M8 0V1.84615C9.64378 1.84615 10.2987 2.41742 10.6367 3.00721C6.38908 3.57154 3.02827 6.5244 2.28516 10.4297C1.02447 10.7574 0 11.6607 0 12.9231C0 14.173 1.0082 15.0647 2.25 15.4038C2.8401 18.5598 5.09778 21.1887 8.20703 22.381L8.2168 22.3612C8.68873 22.7833 9.29955 23.0769 10 23.0769C10.3002 23.0769 10.5858 23.0266 10.8652 22.9453L10.8633 22.9471C10.9072 22.9345 10.9555 22.9582 11 22.9471V24H13V22.9471C13.0445 22.9582 13.0928 22.9345 13.1367 22.9471L13.1348 22.9453C13.4142 23.0262 13.6998 23.0769 14 23.0769C14.7182 23.0769 15.3477 22.7701 15.8242 22.3305L15.8398 22.363C18.9273 21.1632 21.1631 18.5439 21.75 15.4038C22.9918 15.0647 24 14.173 24 12.9231C24 11.6993 23.0247 10.8327 21.8223 10.4712C21.0702 6.80702 18.0694 3.98682 14.1953 3.15325C14.2084 3.13171 14.2022 3.11289 14.2168 3.09375C14.3641 2.90115 14.4917 2.76923 15 2.76923V0.923077C13.9083 0.923077 13.0367 1.43803 12.584 2.03005C12.5428 2.08394 12.5673 2.12773 12.5312 2.18149C11.8019 0.957824 10.2249 0 8 0ZM12 4.61538C16.0928 4.61538 19.4719 7.48962 20.0078 11.1995L20.125 12H21C21.5545 12 22 12.4112 22 12.9231C22 13.435 21.5545 13.8462 21 13.8462H20.0059L19.9062 14.6665C19.6672 16.6528 18.5744 18.3952 16.9863 19.5865C16.9892 19.5186 17 19.4534 17 19.3846C17 18.4537 16.7382 17.5961 16.2461 16.9147C15.754 16.2332 14.9576 15.6923 14 15.6923C13.6998 15.6923 13.4142 15.7427 13.1348 15.8239L13.1367 15.8221C12.406 16.0322 11.594 16.0322 10.8633 15.8221L10.8652 15.8239C10.5858 15.7431 10.3002 15.6923 10 15.6923C9.04237 15.6923 8.24603 16.2332 7.75391 16.9147C7.26178 17.5961 7 18.4537 7 19.3846C7 19.4528 7.01088 19.5174 7.01367 19.5847C5.42715 18.3929 4.33282 16.6519 4.09375 14.6665L3.99414 13.8462H3C2.44545 13.8462 2 13.435 2 12.9231C2 12.4112 2.44545 12 3 12H3.99414L4.09375 11.1797C4.53862 7.48381 7.90725 4.61538 12 4.61538ZM8.5 11.0769C7.672 11.0769 7 11.6972 7 12.4615C7 13.2258 7.672 13.8462 8.5 13.8462C9.328 13.8462 10 13.2258 10 12.4615C10 11.6972 9.328 11.0769 8.5 11.0769ZM15.5 11.0769C14.672 11.0769 14 11.6972 14 12.4615C14 13.2258 14.672 13.8462 15.5 13.8462C16.328 13.8462 17 13.2258 17 12.4615C17 11.6972 16.328 11.0769 15.5 11.0769ZM10 17.5385C10.0458 17.5385 10.1449 17.5498 10.2676 17.5853H10.2695C11.3948 17.9088 12.6072 17.9088 13.7324 17.5853H13.7344L13.7363 17.5835C13.8567 17.5485 13.9542 17.5385 14 17.5385C14.1474 17.5385 14.3504 17.6179 14.582 17.9387C14.8137 18.2595 15 18.786 15 19.3846C15 19.9832 14.8137 20.5098 14.582 20.8305C14.3504 21.1513 14.1474 21.2308 14 21.2308C13.9542 21.2308 13.8551 21.2194 13.7324 21.1839H13.7305C13.493 21.1156 13.2437 21.1206 13 21.0811V19.3846H11V21.0811C10.7559 21.1206 10.5054 21.1155 10.2676 21.1839H10.2656L10.2637 21.1857C10.1432 21.2207 10.0458 21.2308 10 21.2308C9.85263 21.2308 9.6496 21.1513 9.41797 20.8305C9.18634 20.5098 9 19.9832 9 19.3846C9 18.786 9.18634 18.2595 9.41797 17.9387C9.6496 17.618 9.85263 17.5385 10 17.5385Z" fill="#0E57CA"/>
</svg>
