<svg width="24" height="24" viewBox="0 0 24 24" fill="none" xmlns="http://www.w3.org/2000/svg">
<path d="M8.39801 0C5.90528 0 3.77871 0.772201 2.29145 2.17383C0.804183 3.57545 0 5.57804 0 7.83398C0 9.53673 0.649691 10.8712 1.31788 12.043C1.98607 13.2148 2.67011 14.263 3.03745 15.5723C3.47857 17.1851 3.79629 19.106 4.30982 20.7168C4.56688 21.5231 4.86537 22.2614 5.34275 22.8789C5.82014 23.4964 6.59258 24 7.47589 24C8.32181 24 9.15069 23.567 9.58134 22.9062C10.012 22.2455 10.1314 21.4742 10.1314 20.6348C10.1314 19.6031 10.1295 17.9872 10.3531 16.7207C10.4649 16.0875 10.6451 15.5486 10.8181 15.2695C10.9911 14.9904 11.0048 15 11.1406 15C11.2765 15 11.2914 14.992 11.4651 15.2715C11.6389 15.5509 11.8194 16.0894 11.9321 16.7227C12.1575 17.9891 12.1577 19.6044 12.1577 20.6348C12.1577 21.4742 12.2774 22.2437 12.7078 22.9043C13.1382 23.5649 13.9676 24 14.8133 24C15.7002 24 16.4702 23.4899 16.9464 22.8691C17.4226 22.2484 17.7206 21.5078 17.9774 20.6992C18.4906 19.0832 18.8115 17.1593 19.2517 15.5723C19.6191 14.263 20.3011 13.2149 20.9693 12.043C21.6366 10.8726 22.2835 9.53899 22.2852 7.83984C22.3339 3.306 18.8403 0 14.2533 0C12.9163 0 11.3366 0.475542 11.0852 0.548828C10.2639 0.229939 9.36734 0 8.39801 0ZM14.2533 2C17.9212 2 20.3039 4.24946 20.2629 7.82227L20.2609 7.82812V7.83398C20.2609 9.04666 19.8283 9.9679 19.2042 11.0625C18.5801 12.1571 17.7621 13.3873 17.2986 15.0391V15.041C16.8164 16.7784 16.4884 18.7006 16.0441 20.0996C15.8219 20.7991 15.5638 21.3596 15.3317 21.6621C15.0997 21.9645 15.0109 22 14.8133 22C14.506 22 14.5141 21.9816 14.4116 21.8242C14.3091 21.6669 14.184 21.2533 14.184 20.6348C14.184 19.6151 14.2006 17.9136 13.9268 16.375C13.7899 15.6057 13.5931 14.8689 13.1926 14.2246C12.7922 13.5803 12.0366 13 11.1406 13C10.2446 13 9.49022 13.5819 9.09059 14.2266C8.69096 14.8712 8.49226 15.6077 8.35646 16.377C8.08486 17.9155 8.10515 19.6164 8.10515 20.6348C8.10515 21.2533 7.98011 21.665 7.87759 21.8223C7.77507 21.9796 7.78395 22 7.47589 22C7.27464 22 7.18436 21.9646 6.95349 21.666C6.72263 21.3674 6.46501 20.8132 6.2431 20.1172C5.7993 18.7251 5.47159 16.8019 4.99053 15.0449V15.041L4.98855 15.0391C4.52511 13.3873 3.70902 12.1569 3.08494 11.0625C2.65522 10.3089 2.3269 9.6337 2.15689 8.89258C2.50637 8.95637 2.86265 9 3.2294 9C6.46914 9 9.1183 6.38601 9.1183 3.1875C9.1183 2.79986 9.06962 2.42284 8.99561 2.05469C11.1777 2.39695 13.4341 4.42578 13.4341 4.42578L14.8608 3.00586C14.8608 3.00586 14.1881 2.47922 13.723 2.0957C13.9323 2.0669 14.1163 2 14.2533 2ZM6.92975 2.11328C7.03131 2.45384 7.09201 2.81223 7.09201 3.1875C7.09201 5.30499 5.3735 7 3.2294 7C2.83423 7 2.45755 6.9357 2.10148 6.82812C2.28676 5.50243 2.83727 4.42507 3.69244 3.61914C4.48832 2.86908 5.56637 2.33454 6.92975 2.11328Z" fill="#0E57CA" fill-opacity="0.5"/>
</svg>
