<svg width="11" height="4" viewBox="0 0 11 4" fill="none" xmlns="http://www.w3.org/2000/svg">
<path d="M6.95161 2.00001C6.95161 2.80243 6.30242 3.45163 5.5 3.45163C4.69758 3.45163 4.04839 2.80243 4.04839 2.00001C4.04839 1.19759 4.69758 0.548401 5.5 0.548401C6.30242 0.548401 6.95161 1.19759 6.95161 2.00001ZM9.04839 0.548401C8.24597 0.548401 7.59677 1.19759 7.59677 2.00001C7.59677 2.80243 8.24597 3.45163 9.04839 3.45163C9.85081 3.45163 10.5 2.80243 10.5 2.00001C10.5 1.19759 9.85081 0.548401 9.04839 0.548401ZM1.95161 0.548401C1.14919 0.548401 0.5 1.19759 0.5 2.00001C0.5 2.80243 1.14919 3.45163 1.95161 3.45163C2.75403 3.45163 3.40323 2.80243 3.40323 2.00001C3.40323 1.19759 2.75403 0.548401 1.95161 0.548401Z" fill="white"/>
</svg>
