<svg width="191" height="136" viewBox="0 0 191 136" fill="none" xmlns="http://www.w3.org/2000/svg">
<path d="M0.106201 125.2C0.106201 130.723 4.58335 135.2 10.1062 135.2H45.3062C50.829 135.2 55.3062 130.723 55.3062 125.2V82.2C55.3062 76.6772 50.829 72.2 45.3062 72.2H37.9062C35.2552 72.2 33.1062 70.051 33.1062 67.4C33.1062 47.2292 42.4982 33.6327 64.1905 23.7026C69.1528 21.431 71.8869 15.8603 70.1169 10.6978L69.0103 7.47022C67.3572 2.64863 62.3233 -0.198635 57.4194 1.19155C17.9065 12.393 0.106201 35.8022 0.106201 81.2V125.2ZM120.106 125.2C120.106 130.723 124.583 135.2 130.106 135.2H164.706C170.229 135.2 174.706 130.723 174.706 125.2V82.2C174.706 76.6772 170.229 72.2 164.706 72.2H157.906C155.255 72.2 153.106 70.051 153.106 67.4C153.106 47.2292 162.498 33.6327 184.191 23.7026C189.153 21.431 191.887 15.8603 190.117 10.6978L189.01 7.47022C187.357 2.64863 182.323 -0.198635 177.419 1.19155C137.907 12.393 120.106 35.8022 120.106 81.2V125.2Z" fill="#2B3E60"/>
</svg>
