<svg width="30" height="30" viewBox="0 0 30 30" fill="none" xmlns="http://www.w3.org/2000/svg">
<rect width="30" height="30" rx="15" fill="#EDF4FF"/>
<path d="M22.9033 14.5944C21.397 11.6552 18.4147 9.66663 15 9.66663C11.5853 9.66663 8.60221 11.6566 7.09665 14.5947C7.03311 14.7204 7 14.8593 7 15.0001C7 15.141 7.03311 15.2798 7.09665 15.4055C8.60304 18.3447 11.5853 20.3333 15 20.3333C18.4147 20.3333 21.3978 18.3433 22.9033 15.4052C22.9669 15.2796 23 15.1407 23 14.9998C23 14.859 22.9669 14.7201 22.9033 14.5944ZM15 19C14.2089 19 13.4355 18.7654 12.7777 18.3259C12.1199 17.8863 11.6072 17.2616 11.3045 16.5307C11.0017 15.7998 10.9225 14.9955 11.0769 14.2196C11.2312 13.4437 11.6122 12.7309 12.1716 12.1715C12.731 11.6121 13.4437 11.2312 14.2196 11.0768C14.9956 10.9225 15.7998 11.0017 16.5307 11.3044C17.2616 11.6072 17.8864 12.1199 18.3259 12.7777C18.7654 13.4355 19 14.2088 19 15C19.0003 15.5253 18.897 16.0456 18.696 16.531C18.4951 17.0164 18.2005 17.4575 17.829 17.829C17.4575 18.2005 17.0165 18.4951 16.531 18.696C16.0456 18.8969 15.5254 19.0002 15 19ZM15 12.3333C14.762 12.3366 14.5255 12.372 14.2969 12.4386C14.4853 12.6946 14.5757 13.0097 14.5518 13.3266C14.5278 13.6436 14.391 13.9415 14.1662 14.1662C13.9415 14.391 13.6436 14.5278 13.3266 14.5517C13.0097 14.5757 12.6946 14.4853 12.4386 14.2969C12.2928 14.834 12.3191 15.4033 12.5139 15.9247C12.7086 16.4461 13.0619 16.8932 13.5241 17.2033C13.9862 17.5133 14.534 17.6707 15.0903 17.6531C15.6465 17.6355 16.1833 17.4439 16.625 17.1053C17.0667 16.7667 17.391 16.2981 17.5525 15.7655C17.7139 15.2329 17.7042 14.6631 17.5248 14.1362C17.3454 13.6094 17.0053 13.1521 16.5524 12.8287C16.0995 12.5052 15.5565 12.332 15 12.3333Z" fill="#C4D5E7"/>
</svg>
