<svg width="6" height="10" viewBox="0 0 6 10" fill="none" xmlns="http://www.w3.org/2000/svg">
<path d="M4.93504 3.48594L1.65679 0.207689C1.52297 0.0746653 1.34195 0 1.15326 0C0.964577 0 0.783558 0.0746653 0.649741 0.207689C0.582798 0.274084 0.529665 0.353078 0.493405 0.440111C0.457145 0.527145 0.438477 0.620497 0.438477 0.714783C0.438477 0.809068 0.457145 0.90242 0.493405 0.989454C0.529665 1.07649 0.582798 1.15548 0.649741 1.22188L3.93514 4.49299C4.00208 4.55938 4.05521 4.63838 4.09147 4.72541C4.12773 4.81244 4.1464 4.9058 4.1464 5.00008C4.1464 5.09437 4.12773 5.18772 4.09147 5.27475C4.05521 5.36179 4.00208 5.44078 3.93514 5.50718L0.649741 8.77829C0.515251 8.91183 0.439319 9.09333 0.43865 9.28286C0.43798 9.47238 0.512628 9.65441 0.64617 9.7889C0.779713 9.92339 0.961211 9.99933 1.15074 10C1.34027 10.0007 1.5223 9.92602 1.65679 9.79247L4.93504 6.51422C5.33629 6.11247 5.56167 5.56789 5.56167 5.00008C5.56167 4.43228 5.33629 3.88769 4.93504 3.48594Z" fill="white"/>
</svg>
