<svg width="6" height="10" viewBox="0 0 6 10" fill="none" xmlns="http://www.w3.org/2000/svg">
<path d="M1.06508 3.48594L4.34334 0.207689C4.47715 0.0746653 4.65817 0 4.84686 0C5.03554 0 5.21656 0.0746653 5.35038 0.207689C5.41732 0.274084 5.47046 0.353078 5.50672 0.440111C5.54298 0.527145 5.56165 0.620497 5.56165 0.714783C5.56165 0.809068 5.54298 0.90242 5.50672 0.989454C5.47046 1.07649 5.41732 1.15548 5.35038 1.22188L2.06498 4.49299C1.99804 4.55938 1.94491 4.63838 1.90865 4.72541C1.87239 4.81244 1.85372 4.9058 1.85372 5.00008C1.85372 5.09437 1.87239 5.18772 1.90865 5.27475C1.94491 5.36179 1.99804 5.44078 2.06498 5.50718L5.35038 8.77829C5.48487 8.91183 5.5608 9.09333 5.56147 9.28286C5.56214 9.47238 5.48749 9.65441 5.35395 9.7889C5.22041 9.92339 5.03891 9.99933 4.84938 10C4.65986 10.0007 4.47783 9.92602 4.34334 9.79247L1.06508 6.51422C0.663834 6.11247 0.438456 5.56789 0.438456 5.00008C0.438456 4.43228 0.663834 3.88769 1.06508 3.48594Z" fill="white"/>
</svg>
