<svg width="20" height="20" viewBox="0 0 20 20" fill="none" xmlns="http://www.w3.org/2000/svg">
<path d="M19.4492 5.54807L17.6483 7.34893C17.4647 7.53253 17.1678 7.53253 16.9842 7.34893L12.6481 3.01282C12.4645 2.82921 12.4645 2.53233 12.6481 2.34873L14.449 0.547873C15.1795 -0.182624 16.367 -0.182624 17.1014 0.547873L19.4492 2.89562C20.1836 3.62612 20.1836 4.81367 19.4492 5.54807ZM11.1012 3.89566L0.84298 14.1539L0.0148221 18.9002C-0.0984637 19.5408 0.460152 20.0955 1.1008 19.9861L5.84708 19.1541L16.1053 8.89586C16.2889 8.71226 16.2889 8.41537 16.1053 8.23177L11.7692 3.89566C11.5817 3.71206 11.2848 3.71206 11.1012 3.89566ZM4.84705 13.2749C4.63219 13.0601 4.63219 12.7163 4.84705 12.5015L10.8629 6.48561C11.0778 6.27076 11.4215 6.27076 11.6364 6.48561C11.8512 6.70046 11.8512 7.04423 11.6364 7.25908L5.62051 13.2749C5.40566 13.4898 5.0619 13.4898 4.84705 13.2749ZM3.43683 16.5602H5.31191V17.9783L2.79228 18.4197L1.57738 17.2048L2.01881 14.6852H3.43683V16.5602Z" fill="#1B273F"/>
</svg>
