<svg width="208" height="41" viewBox="0 0 208 41" fill="none" xmlns="http://www.w3.org/2000/svg">
<path d="M39.7597 14.5315L39.7597 14.532C39.6176 22.1677 37.7088 29.3444 33.4382 35.7467L33.4381 35.7468C32.5171 37.1261 31.3708 38.4235 30.1201 39.4753L30.1195 39.4758C29.0082 40.4037 27.8476 40.7617 26.7588 40.5366C25.6738 40.3122 24.7187 39.5208 23.9889 38.2728C23.7696 37.8985 23.5612 37.5115 23.3555 37.1298C23.2472 36.9287 23.1397 36.7291 23.0318 36.5335C22.7156 35.9606 22.3894 35.4096 22.0068 34.9063L22.0059 34.9052C21.3288 34.0039 20.7583 33.6398 20.2432 33.6418C19.7249 33.6438 19.1436 34.016 18.4452 34.909L18.4445 34.91C18.0439 35.4174 17.7247 35.9765 17.3969 36.5508C17.2903 36.7376 17.1827 36.9261 17.0711 37.1148C16.9643 37.3012 16.8662 37.4907 16.7656 37.6851C16.7268 37.7602 16.6876 37.8359 16.6473 37.9125C16.5051 38.1833 16.3529 38.4586 16.1721 38.7156C15.4998 39.6976 14.6378 40.3444 13.6845 40.5489C12.7254 40.7546 11.7125 40.5042 10.7651 39.7654L10.7646 39.765C9.37129 38.6727 8.08181 37.2933 7.07826 35.8307L7.07798 35.8303C3.23259 30.2026 1.34383 23.8422 0.836385 17.0848C0.694001 15.2229 0.713825 13.3143 1.00018 11.4832C1.64093 7.36678 4.10727 4.56187 7.8037 2.82671C10.6299 1.48787 13.6531 0.976544 16.698 0.792739C17.5711 0.735186 18.4602 0.74827 19.3333 0.761119C19.7014 0.766537 20.0667 0.771912 20.4268 0.771933C20.4275 0.771933 20.4282 0.771934 20.4289 0.771934V1.02193C24.0028 0.961007 27.5565 1.1844 30.9688 2.40294L39.7597 14.5315ZM39.7597 14.5315C39.8109 11.4629 39.0888 8.88456 37.6161 6.81239C36.144 4.74092 33.9365 3.19603 31.0528 2.16747L39.7597 14.5315ZM12.3415 15.9036L12.3414 15.9035C10.4457 14.446 8.75937 14.0913 7.48986 14.6091C6.22007 15.1269 5.25441 16.5634 4.90692 18.9501L4.90687 18.9505C4.17011 23.9575 5.50152 28.5726 7.92659 32.9067L7.92702 32.9075C8.88192 34.6283 10.1785 36.2149 11.5618 37.6264L11.5618 37.6264C12.2125 38.2906 12.7617 38.4861 13.2208 38.3917C13.6932 38.2946 14.1749 37.872 14.6378 37.05C14.7976 36.7607 14.9527 36.4576 15.11 36.1503C15.4332 35.5188 15.7652 34.8701 16.1644 34.2886M12.3415 15.9036L16.3705 34.4301M12.3415 15.9036C15.2858 18.1646 17.2827 21.2116 18.7663 24.5992M12.3415 15.9036L18.7663 24.5992M16.1644 34.2886L16.3705 34.4301M16.1644 34.2886C16.1642 34.2888 16.164 34.2891 16.1639 34.2893L16.3705 34.4301M16.1644 34.2886C16.7841 33.3792 17.4819 32.5163 18.397 31.9942C19.222 31.5235 20.203 31.341 21.4214 31.6097M16.3705 34.4301C17.5573 32.6884 18.9503 31.2485 21.5251 31.8909C21.4903 31.7969 21.4557 31.7031 21.4214 31.6097M21.4214 31.6097C21.1874 30.9737 20.9632 30.3506 20.743 29.7385C20.0985 27.9471 19.4879 26.2501 18.7663 24.5992M21.4214 31.6097C21.5175 31.6309 21.6152 31.6549 21.7144 31.6818C21.4612 30.9959 21.2192 30.3233 20.9814 29.6624C20.3355 27.8673 19.7205 26.158 18.9953 24.499M18.7663 24.5992L18.9953 24.499M18.7663 24.5992C18.7663 24.5992 18.7663 24.5993 18.7663 24.5993L18.9953 24.499M18.7663 24.5992L18.9953 24.499M3.08862 16.9091L3.08851 16.9091L3.08642 16.9164C3.07432 16.959 3.06176 17.0011 3.04863 17.0433C2.50655 14.3647 3.1058 12.002 4.48597 10.3383C6.00259 8.51023 8.48929 7.49332 11.5359 7.85032L11.5361 7.85035C13.3457 8.06037 15.1254 8.65318 16.9169 9.24993C17.1726 9.33511 17.4286 9.42038 17.6849 9.50462C18.8552 9.89699 20.0124 10.3286 21.1726 10.7613C21.5087 10.8866 21.8451 11.0121 22.1822 11.1367C23.68 11.6905 25.1871 12.2266 26.7218 12.656L26.7223 12.6561C28.9298 13.2694 31.1182 12.7157 32.8747 11.0962L32.8751 11.0958C33.5341 10.4856 34.0165 9.80664 34.27 9.04415C34.5243 8.27958 34.543 7.44734 34.2995 6.54193L34.2985 6.53857C34.2933 6.52008 34.2895 6.49968 34.2864 6.47198C35.4471 7.3989 36.2658 8.4046 36.6245 9.64162L36.6254 9.64451C37.1292 11.3066 37.5627 13.0409 37.5233 14.7042L37.5233 14.7052C37.3828 21.8126 35.5567 28.4679 31.6679 34.4358L31.6672 34.4368C30.9719 35.516 30.1168 36.5362 29.1821 37.4163L29.1818 37.4166C28.3572 38.196 27.705 38.462 27.19 38.3678C26.6783 38.2742 26.1809 37.8019 25.7251 36.7852L25.7248 36.7845C24.8212 34.7852 24.0571 32.6823 23.3516 30.5737C21.9194 26.2521 20.4345 21.9279 17.6193 18.2345L17.6183 18.2333C16.14 16.3186 14.5403 14.4983 12.3552 13.2542C10.3387 12.0997 8.3756 11.8738 6.72533 12.5281C5.07564 13.1822 3.7914 14.6949 3.08862 16.9091ZM27.6921 10.6076L27.6918 10.6075C25.8864 10.2039 24.0792 9.65875 22.3305 9.03201C21.3398 8.67547 20.3736 8.26913 19.4026 7.86079C19.3025 7.81871 19.2024 7.77661 19.1022 7.73454C18.0325 7.28536 16.9546 6.84031 15.8443 6.47144C12.6751 5.39573 9.42459 5.12395 6.20254 6.35586C6.40863 6.23344 6.61271 6.10971 6.81598 5.98647C7.69283 5.45483 8.55439 4.93247 9.49539 4.56517L9.49539 4.56519L9.49761 4.56429C13.845 2.81922 18.4406 2.81524 23.1043 2.99799C25.5131 3.09897 27.7988 3.4417 29.8204 4.76362C30.4446 5.189 31.0666 5.64062 31.5484 6.18306C32.0929 6.80798 32.307 7.40791 32.2569 7.96285C32.2065 8.51994 31.8852 9.08408 31.2507 9.62553L31.2503 9.62585C30.2107 10.5166 28.9568 10.8923 27.6921 10.6076Z" fill="#0E57CA" stroke="#0E57CA" stroke-width="0.5"/>
<path d="M59.1305 33.5851C59.4745 33.5851 59.8042 33.6309 60.1197 33.7224C60.4353 33.8107 60.6956 33.9196 60.9007 34.049C61.1089 34.1783 61.2904 34.3061 61.445 34.4323C61.5996 34.5586 61.7132 34.6674 61.7858 34.7589L61.8899 34.8914L61.2131 35.573C61.1941 35.5478 61.1657 35.5131 61.1279 35.4689C61.0932 35.4215 61.0111 35.3379 60.8818 35.218C60.7524 35.0981 60.6135 34.9956 60.4652 34.9104C60.3169 34.822 60.1229 34.7416 59.8831 34.669C59.6464 34.5933 59.3956 34.5554 59.1305 34.5554C58.4269 34.5554 57.8305 34.7999 57.3414 35.289C56.8523 35.775 56.6078 36.3697 56.6078 37.0734C56.6078 37.777 56.8508 38.3734 57.3367 38.8625C57.8258 39.3516 58.4237 39.5961 59.1305 39.5961C59.3956 39.5961 59.648 39.5598 59.8878 39.4873C60.1308 39.4115 60.3311 39.3216 60.4889 39.2175C60.6498 39.1133 60.7902 39.0108 60.9101 38.9098C61.0332 38.8057 61.1247 38.7173 61.1847 38.6448L61.2604 38.5264L61.942 39.208C61.9167 39.2459 61.8773 39.2964 61.8236 39.3595C61.7731 39.4194 61.658 39.5267 61.4781 39.6813C61.3014 39.8359 61.1121 39.9732 60.9101 40.0931C60.7114 40.213 60.4495 40.3219 60.1245 40.4197C59.8026 40.5143 59.4713 40.5617 59.1305 40.5617C58.1145 40.5617 57.2625 40.224 56.5747 39.5488C55.8868 38.8735 55.5428 38.0484 55.5428 37.0734C55.5428 36.0984 55.8868 35.2732 56.5747 34.598C57.2625 33.9227 58.1145 33.5851 59.1305 33.5851Z" fill="#3C4E55"/>
<path d="M65.8518 39.4967H69.6809V40.467H64.7869V33.6798H69.5862V34.6501H65.8518V36.4439H68.81V37.4142H65.8518V39.4967Z" fill="#3C4E55"/>
<path d="M71.8537 33.6798H76.9891V34.6501H74.9539V40.467H73.889V34.6501H71.8537V33.6798Z" fill="#3C4E55"/>
<path d="M82.3615 40.467H79.6495V33.6798H80.7144V36.1031H82.3615C83.0084 36.1031 83.5495 36.3161 83.985 36.7421C84.4236 37.1649 84.6429 37.6808 84.6429 38.2898C84.6429 38.8956 84.4236 39.4099 83.985 39.8328C83.5495 40.2556 83.0084 40.467 82.3615 40.467ZM80.7144 39.4967H82.3615C82.696 39.4967 82.9816 39.3816 83.2182 39.1512C83.4549 38.9177 83.5732 38.6306 83.5732 38.2898C83.5732 37.9459 83.4549 37.6571 83.2182 37.4236C82.9847 37.1901 82.6991 37.0734 82.3615 37.0734H80.7144V39.4967Z" fill="#3C4E55"/>
<path d="M94.3133 33.5851C94.6572 33.5851 94.9869 33.6309 95.3025 33.7224C95.618 33.8107 95.8783 33.9196 96.0834 34.049C96.2917 34.1783 96.4731 34.3061 96.6277 34.4323C96.7823 34.5586 96.8959 34.6674 96.9685 34.7589L97.0726 34.8914L96.3958 35.573C96.3769 35.5478 96.3485 35.5131 96.3106 35.4689C96.2759 35.4215 96.1939 35.3379 96.0645 35.218C95.9351 35.0981 95.7963 34.9956 95.648 34.9104C95.4997 34.822 95.3056 34.7416 95.0658 34.669C94.8292 34.5933 94.5783 34.5554 94.3133 34.5554C93.6096 34.5554 93.0132 34.7999 92.5242 35.289C92.0351 35.775 91.7905 36.3697 91.7905 37.0734C91.7905 37.777 92.0335 38.3734 92.5194 38.8625C93.0085 39.3516 93.6065 39.5961 94.3133 39.5961C94.5783 39.5961 94.8307 39.5598 95.0705 39.4873C95.3135 39.4115 95.5139 39.3216 95.6716 39.2175C95.8326 39.1133 95.973 39.0108 96.0929 38.9098C96.216 38.8057 96.3075 38.7173 96.3674 38.6448L96.4431 38.5264L97.1247 39.208C97.0995 39.2459 97.06 39.2964 97.0064 39.3595C96.9559 39.4194 96.8407 39.5267 96.6609 39.6813C96.4842 39.8359 96.2948 39.9732 96.0929 40.0931C95.8941 40.213 95.6322 40.3219 95.3072 40.4197C94.9854 40.5143 94.654 40.5617 94.3133 40.5617C93.2972 40.5617 92.4453 40.224 91.7574 39.5488C91.0695 38.8735 90.7256 38.0484 90.7256 37.0734C90.7256 36.0984 91.0695 35.2732 91.7574 34.598C92.4453 33.9227 93.2972 33.5851 94.3133 33.5851Z" fill="#3C4E55"/>
<path d="M99.1934 33.6798H104.329V34.6501H102.294V40.467H101.229V34.6501H99.1934V33.6798Z" fill="#3C4E55"/>
<path d="M108.007 35.289C107.521 35.775 107.278 36.3697 107.278 37.0734C107.278 37.777 107.521 38.3734 108.007 38.8625C108.496 39.3516 109.092 39.5961 109.796 39.5961C110.503 39.5961 111.099 39.3516 111.585 38.8625C112.074 38.3734 112.319 37.777 112.319 37.0734C112.319 36.3697 112.074 35.775 111.585 35.289C111.099 34.7999 110.503 34.5554 109.796 34.5554C109.092 34.5554 108.496 34.7999 108.007 35.289ZM107.245 39.5488C106.557 38.8735 106.213 38.0484 106.213 37.0734C106.213 36.0984 106.557 35.2732 107.245 34.598C107.933 33.9227 108.783 33.5851 109.796 33.5851C110.812 33.5851 111.664 33.9227 112.352 34.598C113.04 35.2732 113.384 36.0984 113.384 37.0734C113.384 38.0484 113.04 38.8735 112.352 39.5488C111.664 40.224 110.812 40.5617 109.796 40.5617C108.783 40.5617 107.933 40.224 107.245 39.5488Z" fill="#3C4E55"/>
<path d="M119.968 36.9787L122.585 33.6798H123.508V40.467H122.443V35.5257L119.968 38.6258L117.497 35.5257V40.467H116.432V33.6798H117.35L119.968 36.9787Z" fill="#3C4E55"/>
<path d="M126.159 40.467L128.97 33.6798H130.035L132.847 40.467H131.734L131.005 38.6732H128L127.271 40.467H126.159ZM129.505 34.8914L128.388 37.7029H130.617L129.505 34.8914Z" fill="#3C4E55"/>
<path d="M134.144 33.6798H139.279V34.6501H137.244V40.467H136.179V34.6501H134.144V33.6798Z" fill="#3C4E55"/>
<path d="M142.957 35.289C142.471 35.775 142.228 36.3697 142.228 37.0734C142.228 37.777 142.471 38.3734 142.957 38.8625C143.446 39.3516 144.043 39.5961 144.746 39.5961C145.453 39.5961 146.049 39.3516 146.535 38.8625C147.025 38.3734 147.269 37.777 147.269 37.0734C147.269 36.3697 147.025 35.775 146.535 35.289C146.049 34.7999 145.453 34.5554 144.746 34.5554C144.043 34.5554 143.446 34.7999 142.957 35.289ZM142.195 39.5488C141.507 38.8735 141.163 38.0484 141.163 37.0734C141.163 36.0984 141.507 35.2732 142.195 34.598C142.883 33.9227 143.733 33.5851 144.746 33.5851C145.762 33.5851 146.614 33.9227 147.302 34.598C147.99 35.2732 148.334 36.0984 148.334 37.0734C148.334 38.0484 147.99 38.8735 147.302 39.5488C146.614 40.224 145.762 40.5617 144.746 40.5617C143.733 40.5617 142.883 40.224 142.195 39.5488Z" fill="#3C4E55"/>
<path d="M156.513 33.6798V40.467H155.448V34.6501H152.977V35.715C152.977 36.69 152.93 37.5057 152.836 38.162C152.741 38.8183 152.597 39.3169 152.405 39.6576C152.215 39.9984 152.006 40.2351 151.775 40.3676C151.548 40.497 151.27 40.5617 150.942 40.5617C150.826 40.5617 150.702 40.549 150.573 40.5238C150.444 40.4986 150.343 40.4733 150.27 40.4481L150.166 40.4197V39.4021C150.359 39.4652 150.535 39.4967 150.696 39.4967C150.882 39.4967 151.042 39.451 151.174 39.3595C151.31 39.2648 151.438 39.0897 151.558 38.8341C151.677 38.5785 151.766 38.1904 151.823 37.6698C151.879 37.1491 151.908 36.4975 151.908 35.715V33.6798H156.513Z" fill="#3C4E55"/>
<path d="M161.351 35.289C160.865 35.775 160.622 36.3697 160.622 37.0734C160.622 37.777 160.865 38.3734 161.351 38.8625C161.84 39.3516 162.436 39.5961 163.14 39.5961C163.847 39.5961 164.443 39.3516 164.929 38.8625C165.418 38.3734 165.662 37.777 165.662 37.0734C165.662 36.3697 165.418 35.775 164.929 35.289C164.443 34.7999 163.847 34.5554 163.14 34.5554C162.436 34.5554 161.84 34.7999 161.351 35.289ZM160.589 39.5488C159.901 38.8735 159.557 38.0484 159.557 37.0734C159.557 36.0984 159.901 35.2732 160.589 34.598C161.277 33.9227 162.127 33.5851 163.14 33.5851C164.156 33.5851 165.008 33.9227 165.696 34.598C166.383 35.2732 166.727 36.0984 166.727 37.0734C166.727 38.0484 166.383 38.8735 165.696 39.5488C165.008 40.224 164.156 40.5617 163.14 40.5617C162.127 40.5617 161.277 40.224 160.589 39.5488Z" fill="#3C4E55"/>
<path d="M169.776 40.467V33.6798H174.135V34.6501H170.841V40.467H169.776Z" fill="#3C4E55"/>
<path d="M182.456 40.467H181.391V35.573L177.609 40.467H176.691V33.6798H177.756V38.5785L181.538 33.6798H182.456V40.467Z" fill="#3C4E55"/>
<path d="M191.653 40.467H190.588V35.573L186.806 40.467H185.888V33.6798H186.953V38.5785L190.735 33.6798H191.653V40.467ZM188.311 31.938C188.441 32.0674 188.602 32.1321 188.794 32.1321C188.99 32.1321 189.152 32.0674 189.282 31.938C189.411 31.8086 189.476 31.6461 189.476 31.4505H190.2C190.2 31.8386 190.067 32.162 189.802 32.4208C189.537 32.6795 189.201 32.8089 188.794 32.8089C188.387 32.8089 188.051 32.6795 187.786 32.4208C187.521 32.162 187.388 31.8386 187.388 31.4505H188.117C188.117 31.643 188.182 31.8055 188.311 31.938Z" fill="#3C4E55"/>
<path d="M57.5428 23.4797C56.4383 23.4797 55.5428 22.5843 55.5428 21.4797V9.11688C55.5428 8.01231 56.4383 7.11688 57.5428 7.11688H61.6439C64.1996 7.11688 66.2878 7.89606 67.9085 9.45443C69.5292 10.9972 70.3395 12.9452 70.3395 15.2983C70.3395 17.6359 69.5214 19.5838 67.8851 21.1422C66.2644 22.7006 64.184 23.4797 61.6439 23.4797H57.5428ZM58.418 18.8617C58.418 19.9662 59.3135 20.8617 60.418 20.8617H61.6439C63.3425 20.8617 64.7138 20.3474 65.7579 19.3189C66.8021 18.2748 67.3241 16.9346 67.3241 15.2983C67.3241 13.6776 66.8021 12.3452 65.7579 11.3011C64.7138 10.257 63.3425 9.73494 61.6439 9.73494H60.418C59.3135 9.73494 58.418 10.6304 58.418 11.7349V18.8617Z" fill="#1B273F"/>
<path d="M75.8278 23.4797C74.7232 23.4797 73.8278 22.5843 73.8278 21.4797V9.11688C73.8278 8.01231 74.7232 7.11688 75.8278 7.11688H84.674C85.3841 7.11688 85.9597 7.69248 85.9597 8.40253C85.9597 9.11258 85.3841 9.68818 84.674 9.68818H78.703C77.5984 9.68818 76.703 10.5836 76.703 11.6882V11.9425C76.703 13.0471 77.5984 13.9425 78.703 13.9425H83.6221C84.3322 13.9425 84.9078 14.5181 84.9078 15.2282C84.9078 15.9382 84.3322 16.5138 83.6221 16.5138H78.703C77.5984 16.5138 76.703 17.4093 76.703 18.5138V18.9084C76.703 20.013 77.5984 20.9084 78.703 20.9084H84.7909C85.501 20.9084 86.0766 21.484 86.0766 22.1941C86.0766 22.9041 85.501 23.4797 84.7909 23.4797H75.8278Z" fill="#1B273F"/>
<path d="M90.9252 23.4797C90.1312 23.4797 89.4876 22.8361 89.4876 22.0421V8.55447C89.4876 7.76051 90.1312 7.11688 90.9252 7.11688C91.7191 7.11688 92.3627 7.76051 92.3627 8.55447V11.9192C92.3627 13.0237 93.2582 13.9192 94.3627 13.9192H98.1702C99.2747 13.9192 100.17 13.0237 100.17 11.9192V8.55447C100.17 7.76051 100.814 7.11688 101.608 7.11688C102.402 7.11688 103.045 7.76051 103.045 8.55447V22.0421C103.045 22.8361 102.402 23.4797 101.608 23.4797C100.814 23.4797 100.17 22.8361 100.17 22.0421V18.584C100.17 17.4794 99.2747 16.584 98.1702 16.584H94.3627C93.2582 16.584 92.3627 17.4794 92.3627 18.584V22.0421C92.3627 22.8361 91.7191 23.4797 90.9252 23.4797Z" fill="#1B273F"/>
<path d="M112.717 23.4797C111.917 23.4797 111.268 22.8309 111.268 22.0305V11.7817C111.268 10.6771 110.373 9.78169 109.268 9.78169H107.411C106.675 9.78169 106.079 9.18515 106.079 8.44928C106.079 7.71341 106.675 7.11688 107.411 7.11688H118.024C118.759 7.11688 119.356 7.71341 119.356 8.44928C119.356 9.18515 118.759 9.78169 118.024 9.78169H116.167C115.062 9.78169 114.167 10.6771 114.167 11.7817V22.0305C114.167 22.8309 113.518 23.4797 112.717 23.4797Z" fill="#1B273F"/>
<path d="M120.958 23.4797C119.988 23.4797 119.337 22.4845 119.725 21.5956L125.578 8.19932C125.896 7.47083 126.616 7 127.411 7H127.458C128.253 7 128.973 7.47083 129.291 8.19932L135.119 21.539C135.519 22.4546 134.848 23.4797 133.849 23.4797C133.291 23.4797 132.787 23.1451 132.571 22.6306L131.783 20.7546C131.471 20.0122 130.744 19.5293 129.939 19.5293H124.853C124.051 19.5293 123.327 20.0079 123.013 20.7454L122.196 22.6616C121.985 23.1577 121.498 23.4797 120.958 23.4797ZM125.69 14.3966C125.166 15.6202 126.063 16.9813 127.395 16.9813C128.728 16.9813 129.626 15.6157 129.097 14.3915C128.451 12.8974 126.332 12.9006 125.69 14.3966Z" fill="#1B273F"/>
<path d="M138.772 23.6667C138.431 23.6667 138.091 23.6444 137.753 23.5998C137.192 23.5258 136.835 22.9914 136.902 22.4298L136.954 21.9916C137.012 21.5049 137.511 21.1889 138.001 21.1889C138.375 21.1889 138.695 21.1344 138.959 21.0253C139.24 20.9006 139.528 20.6201 139.824 20.1838C140.136 19.7474 140.378 19.1553 140.549 18.4072C140.736 17.6437 140.892 16.584 141.016 15.2282C141.141 13.8724 141.203 12.2439 141.203 10.3427V9.11688C141.203 8.01231 142.099 7.11688 143.203 7.11688H150.424C151.528 7.11688 152.424 8.01231 152.424 9.11688V22.0421C152.424 22.8361 151.78 23.4797 150.986 23.4797C150.192 23.4797 149.549 22.8361 149.549 22.0421V11.7116C149.549 10.607 148.653 9.71156 147.549 9.71156H145.364C144.551 9.71156 143.892 10.3709 143.892 11.1842C143.892 13.7244 143.783 15.8359 143.564 17.519C143.346 19.1864 143.003 20.4643 142.536 21.3526C142.068 22.2253 141.539 22.833 140.946 23.1759C140.37 23.5031 139.645 23.6667 138.772 23.6667Z" fill="#1B273F"/>
<path d="M158.426 23.4797C157.443 23.4797 156.646 22.6832 156.646 21.7005V8.5311C156.646 7.75005 157.28 7.11688 158.061 7.11688C158.842 7.11688 159.475 7.75004 159.475 8.5311V12.6627C159.475 14.6231 162.003 15.4131 163.119 13.8016L167.224 7.87643C167.553 7.40071 168.095 7.11688 168.674 7.11688C169.648 7.11688 170.438 7.90673 170.438 8.88106V22.0655C170.438 22.8466 169.805 23.4797 169.024 23.4797C168.243 23.4797 167.61 22.8466 167.61 22.0655V17.9619C167.61 16.0011 165.081 15.2113 163.965 16.8237L159.889 22.7131C159.556 23.1932 159.01 23.4797 158.426 23.4797Z" fill="#1B273F"/>
<path d="M176.118 23.4797C175.324 23.4797 174.68 22.8361 174.68 22.0421V8.55447C174.68 7.76051 175.324 7.11688 176.118 7.11688C176.912 7.11688 177.556 7.76051 177.556 8.55447V10.3207C177.556 12.1294 179.765 13.0091 181.008 11.6952L184.965 7.51282C185.204 7.26007 185.537 7.11688 185.885 7.11688C187.002 7.11688 187.572 8.45924 186.795 9.26269L183.261 12.9175C182.574 13.628 182.509 14.7337 183.108 15.5197L187.479 21.2561C188.173 22.1675 187.523 23.4797 186.378 23.4797C185.945 23.4797 185.536 23.2771 185.275 22.9321L181.509 17.9685C180.769 16.9937 179.335 16.9056 178.482 17.7825L178.122 18.1522C177.759 18.5256 177.556 19.026 177.556 19.5471V22.0421C177.556 22.8361 176.912 23.4797 176.118 23.4797Z" fill="#1B273F"/>
<path d="M192.272 23.4797C191.302 23.4797 190.651 22.4845 191.039 21.5956L196.892 8.19932C197.21 7.47083 197.929 7 198.724 7H198.772C199.567 7 200.286 7.47083 200.604 8.19932L206.432 21.539C206.832 22.4546 206.161 23.4797 205.162 23.4797C204.604 23.4797 204.101 23.1451 203.885 22.6306L203.096 20.7546C202.784 20.0122 202.058 19.5293 201.252 19.5293H196.166C195.365 19.5293 194.64 20.0079 194.326 20.7454L193.51 22.6616C193.298 23.1577 192.811 23.4797 192.272 23.4797ZM197.004 14.3966C196.48 15.6202 197.377 16.9813 198.708 16.9813C200.042 16.9813 200.939 15.6157 200.41 14.3915C199.765 12.8974 197.645 12.9006 197.004 14.3966Z" fill="#1B273F"/>
</svg>
